<mxfile host="app.diagrams.net" modified="2023-12-02T16:05:05.341Z" agent="Mozilla/5.0 (Windows NT 10.0; Win64; x64; rv:120.0) Gecko/20100101 Firefox/120.0" etag="kX4I5_8vzpCrHiN-5O6h" version="22.1.5" type="device">
  <diagram name="Strona-1" id="po_qgSuAmxEb7MEIXVmS">
    <mxGraphModel dx="1793" dy="1028" grid="1" gridSize="10" guides="1" tooltips="1" connect="1" arrows="1" fold="1" page="1" pageScale="1" pageWidth="1169" pageHeight="827" math="0" shadow="0">
      <root>
        <mxCell id="0" />
        <mxCell id="1" parent="0" />
        <mxCell id="nX4ZQTxqPqWlE1fyyR4w-1" value="" style="shape=image;verticalLabelPosition=bottom;labelBackgroundColor=default;verticalAlign=top;aspect=fixed;imageAspect=1;image=data:image/png,iVBORw0KGgoAAAANSUhEUgAAAMgAAADICAYAAACtWK6eAAAnO0lEQVR4nOyde2wb173nj1yie/4QuqPCuBnsFST21N24aMqk67QxYHl52ExSp3WbtLERX5tFlNuUcXtTOMXm2srednmIJltVm6DOxt04vO7GQug0XicbZ6+zVeoJeLjSRR3UQl3GbVysMyW1vthJ63s1CYSLg65QLUY8tGWFnHNmOEMOqfkAgRFxHoff4W/O6/eIgQ4DUbIfInwjAOAmRSMbAQBx/l8//3c1lwEAFgDgEgDgoqWTiwCA8wCANyw9d7kDXyGih+nrxE0VLbsFIrwNIqwBAG4GAPhlqBUAALV0MsUM+iozSgs+XTdijdI2A1G07CaIcBoivAMAMNiGWzIAwJSlkwIz6CvMKC224Z4RPUagBgJRMgYRvkfRyEO8p+gUJjPoYUsnzzCjZHawHRFdRiAGYhuGopE9EOHvAAA2BHEPjzBuKD+IDCVCBt8NRNGyn1M0chAAsNHva/uIxQz6uKWTJ5hRYp1uTER48c1AIEqqaoY+BQDY4dc128AFSyd7LT1X6nRDIsLJB/y4iJop3q1o5GcAgH/jx/XayHqI8ChEeP3ifKW4OF+NJvIR19BSDwJREioa+SFEeK9P7bHstzp/s1f4nsfKpdoYAGBQ0YjK90hu8HFF7JyZxzuYUXrbp+tF9ACeDYQPqf6uxdUp+8d/ytLJFN/ou+D2AoqWXQ8A2AIR1iDC21pcFLDnJrvMfOq1Fq4R0UN4MhCIkterGap7fHvbw5iTfH/iNb8nyYqWvZHvt4zaQygv7WMGfdDMp57xs10R3YlrA1EzRfttfdLDj295iZUZ9AlLz11ye1+38OHfHojwmJdehRn0ITOfejKY1kV0C64MhBvHFPeTkmWR7z081om9B74ncy9E+FH7K7g5NzKSCGkD4cOqGZc9xxlLJ/dbeu7X3prnHxAlFUUj34MIP+jmvMhI1jZSy7x8Qj7j4g1s9xr//vKJ0a8vzE6+01oT/WFxvsoWZid/CgCg3EnyQzLnxQbi2yDC5xdmJ98KvpURYUNoIPZYXs3Q0y52xk1LJ7dfPnHf8cX56p9ab6K/MKNUZQZ9rn/TaEJ2bhIbiH8eAPA/mVEKhbFHtA+hgazfefSp2ED8S5LXO2fm8daF2cnftt604Ficr/4zM+jx2ED8w7GB+GckTvkgRHgbM+ik3RO1oYkRIcFxDqJmindDhF+UvNaMmcd3dFsMhpop/juI8OOSh79YGevbGXCTIkLEumYfQJQchAgfkbxOVxqHjZlPPWFPxCUP36FminsCblJEiGg6xBo8UPmxpG+VPay6tRuNo87C7OQbEGEYG4iPiI6NDcT/LTPos/YwrT2ti+gkDYdY3GV9SuJ808zjT7nd34AoqSoa+RpEeDuf/Cv2tfiy8Iv2/KATEYDx8aWfAAB2SRx6pDLW9/U2NCmiw7yvB4EoGVu/8+j/kNjvWLR0crvbCbmaKe5TNHIyNhDfxl1VIP+o3zYWiPBX+jeN7gYA/IYZpd+5+jYtwgz6Wv+m0S8BAP5McKjds56MVrV6n/fNQRSN7JFZ0mUG/Y6l595wczM1U/whRPigxE78BkUjenx86VmIkl78qTxhDxMtnezi8eyOKBqRndhHdDHX9CDcLeO/AQA+LDjvzOUTo193s8/BV4v+g8v23dS/afQvIcK/X5id/JXLcz3BjNIfIMIsNhC/XXAoAgBMMaP0D+1oV0RnuKYHgQjfI7F5Zg+t7nczR7DnHNwXygvrIcJH4+NLRUXLtiW+3dLJkzzXliOKRsba0Z6IznFND6Jm6H8FAPwrpxOYQf/L5RP3Tbq5yfqdRw/EBuKf9dpIThwinIEIg8X5ys+D3KXn1/4Nd5l3wjbY55hRsoJqS0RnudKDKFp2k0TwE7N08pjbm/DVKj+Adk+kZuibipa9xadrNoTHqZ8SHBaDCD8QZDsiOssVA4EIp0UH1+I5PLms3+DhHCc2Kho5o2aKT0OUVHy+9hUsnRDRMTK6RXQvKw1ElI1kkRn0CY/3EaUWPcsjDV0BEd6rZuhbaqZ4t8d2OWLpuVkAwIzgsEFFy24J4v4RnWfZQPgDFoXPngwqEtDSySFLJ/bw7oyH01WI8Ivx8aW/gyjZKNl1y20THSPxconoUpYNhCc7cMTSSSHIhlh67ldmHm/lflFe3Fa223MTNVPcB1HSt6z1zKCviNrj4xwrImTUDUQTHLfADBp4pg9mlBbNfOpJM48/bvdYHi7RDxE+qGboz/migx9tYhJt2aBoWd97r4jOsw6iZL/E6tWpdqboZEbpUmWs78vMoDt4HRC33Mwn8f+Jf7+WsHQiY6zRPKQHWceL1zgOSXjeqrZj5lMvmXn8SWbQQx4m8TGI8MN82PWFVtrBDPq66BiIcCez10cEhD3EukniOFc+V37CjJJl5lPfsnQyIrO73YA4RPhUfHzpBERJV1lNVrYBAHDO6RiIsIyOEV3GOl72zAnLS8ZDv7H03Bs113o6JuNM2IAdvDfxOhQ6K/g8zNnsIzyyrkkdwJV03Djq8En8D/gkXvdwifUQ4SlFy37C7YmWTkS9l+rHfCciXHSVgdRhRqlSGeu7jRk0zRNcu6Ff0chRD0vBF0UHQIQ9DeEiwss6UWwGz7IeSsx86piZxx8DABx1eerNEOE7XZ5TlTimHbUXI9qITA8S6tLK9gS6MtZ3n6UT7Ka3UzQiE1q7EpnNy3/h8poRIadpVpMVdEUyBkvPlfgk/lHJJWFhgoaVMIPK7MdEQ6weQ8ZAugZmlJiZT33X0skNEkvCLhNZR2Wk1yI9ZSCgFr3YzwOdRMuu0Q8+QojMSo5vjn9Bo2aKX4AIH5KYVwG3q3OKlpXpcbpiOBohT4xPwp0yh4R+ZQai5CCvsHuX7DnMoG73UWT2OP7R5TUjQs46XjizKbxgZiiBKBlTM8V9aoa+5cY4ePCXbFrVOjIviig2vceIcW9Zp2whoXTjVrTsLYq2HMzk2kmwVvHKdVGfj0ocE3hpuYj2EuM7xNjhGL/jyVtiRaWovR7nRzOWTv7a/X2xaNK/YOm5UO8ZRbhnnaUTkQvFIC+13HHUTPEeezjFy6h5MY4jPAu9a2dHCW9doStKRPcRk3Qh3wIAeKUN7WkIRMm4mqFPAwCEocFNuGjpZK+l54RxHU3ub+u0WXCYF1f8iJCzTibWQyIkNxD4JPxv+CTci3EwZtBHzTz+pFfjqLUD3yLhsyZyh4/oQtbxcbOjQ6JMUge/UbTsFjVD3+QpS6GHS1BLJzeZ+dR3Ww0Xlvz+pVbuERFO6jvpoj2BDYqWvbEN7bF7jfXx8aVnFY3MeAxCuswMmq6M9aUsPedLrUSIsMix0bL0nGPEYUR3smwglk6Em2btyCCoZor38uGUKCduM+xJ+MfMfOqYX23iKU5FSbM7ErMfETzLBsIM+qoojBUiPApR0stQRwhEeGN8fGkaInxUonBPI85bOhmpjPV93e9E0opG9oqOsXQiyuEb0aVwA1muLyh6C67nxXV8ByI85tb9nGNPwsfMPP6Upef+3v92LSd5EA2vGE8uF9GDXPHmlcmcaP+QPWYtDGKHecrM44+b+dQPgnJFVzRyQGKB4GQ3FzCNcOaKgfC3oChz+wZFI/d6uA/1cE4zLjGD7qiM9d3BjFJg4cC86I/M8MqtT1dEF3GlgM7ifPVPEOH+2EDcye0ExAbin2EG/fHifNXN0uk/+zDJX2QG/c+XT4zeY+m5X7Z4LSGDBypPSfh5nTfzKdduKxHdwzUBU5ZOnpHIOaUqGvmem5tYeu41j2l66py1dLLZzKe+3Y5qToqWTcqspDGDRoU8e5xrSrAtzlcXIMLrYwNxR7cKuxexh03MKMlk+liGGfR0/6bRtGRcRR3LnoRfPjH6wMLsZFuKZUKU7F+/8+jPeO12Jy7a7QqyFFxE5+lb/Qd77M33IkQ/kEu1JAklaQ9W7lP1smS60xfNPLZ7jLa6kMfHl56V7D1GzXzKVa3GiO7jA6v/wHuRmETRzQ/1bxpNMIMel32LLs5X7R7hx7GB+D/FBuI32NdocNiMpZOMmU99f3G++p70N/EBNVP8WmwgLlOq+uylH3zkr9rQpIgO874eBNTe9FDN0F/KuHowgx4y86lvebm5omXtnuR6vpRq90Szlp7zUgOxZdRMMQkR1mXc6O35kKXnOpbQO6J9NDQQwCeqikaklmeZQR828ymv9Qs7jqJlN/HvKpwftfJCiOg+3jfEqmNPwPmE/TOii8QG4rdDhK2F2cmue6ty4zgFAPiwxOH2xHzn4nz1j21oWkQIaGogYHnOUCn2bxrdLpNkLTYQ3wYRhguzk57jLtqNPazq3zT6M0njWLR0sm1hdlJ65S6i+2k6xKoDUfKjaoaelVjVqvOCmcdfD7v7hT0hhwgflg3dZQZ90MynfhR8yyLChGMPAmorT/MQ4XOxgfguyUyMN/RvGv0SAOB/MaP0B3+a6R8QJfsHD1Se4atVUpklmUGPmPnUd4NvXUTYEBqIzcLs5NsQ4d/HBuKy5Y7/DCL8lxBhtjhf+UVYNtMULZvkm4CO7jSrmLp8YnRPWL5DRHuRMhBQM5JZeyJuzzUkT4nZk/f+TaNfAQD8xs2uu99AlFQHD1SegggfdDFUtJkx8/jOdlb4jQgXwjnIamqF+pd/aG45aenkUUvPzXo41xO2YSgaOcC9ct0Ge83wFEGhnktFBItrAwGtGQngO+WHmEFfCerNzLMu7uXBTl6iIKfMPN4ZGUeEJwMBNSO5m4fIei1cucB7lZPMoK+34qULUTIGEb4FIryNJ1gQxZA3xZ6QWzr5RlQPJAK0YiCg9qa+UdHISZ/y957jbu3neZZCe86ywAx6qf5j5SUI+nki6Y9ChDfyjIebWzDUOovMoA9FS7kRK2nJQADPlatm6N8CAHb406SOcNHSya4g5kfcqLdAhDfz/L4beGKK1ckpLvGIzovMoOeZQc8wg76xloZ5YdSqZQOpo2aKe/i8JBR5fGVhBj1k6eQRP8VVtKzds9l63NVi8m/G52wvMIO+1I5gsXYTdq18MxDAk76pGfp9AMD9fl43IOzh3IN+euUqWvZORSMPe8zQIsL+ARQsnRz0ULohdHSLVr4aSB0+N3kcANCRnL4CLtby9foX7KRo2c8pGhmXDATzA/vh5yw913UZ5btNq0AMpA5fbh0DAGwPQa1De6z6uKWTY36tUPHSb0/z79dulhNzWzoJLO2Rn3SrVoEaSB1Fy8Yhwg/wzCbtrHnI+FLykVayuzdCzRTv4c6Obnbmg+Ccmcc7mFF6u8PtaEo3a9UWA1mJomW3QIR3QIS3t7Jf4YA9OZuydHKKb0b6urIBUTKmaOSHvIhPWFhgBt1l5lOvdrohK+kFrdpuICuxexYAwBY+WfMyJl3geybneX2OUpBZ1iFK9qsZeqKFQj5BssgjO5/sdENAD2nVUQOpI5NJhBmUMIOe56WW7V7iUjtrAvIH/tMWV11s471g6eTCqpos/RDhQb72v1kmQK0ZfLOzo0bSS1p1jYHwEmrPtK9VV6lVuqKnXbrJ29gTQt3SSYEZ9DXZFEl8b+BuPmdzXSOlk0bSa1p1jYHYk+3KWN+X29Ska4iPLz0HAHCTOnWRLy8+1upSrKJlb1U08h2XPzh7CHFXJ+YkvaaVVERdSNgGUbLtqyBqprjP5QOnlk5uqIz13efHPoWl516vjPWl7Imliyz5MYjwCxAlZWq7+0YvatVNBgI9Zpb3jKJlb4QIy+bfXXZ29LP020rMfOq4mcefAgDIFuux5wEveixX4Zpe1aqbDKRenySQKlfvv9fyEuVRyQ3OBWZQLehxvz0ur4z1fZEZ9FHJU25SNPI3QbYJ9LhWXWUgPLN8W1J+Khp5QHLp2bJ0MmLmU22rclur3EsfkjnWfqkoWjaI/aYr9LJW3WYg9pf4DkTJQHfj7bkOLz8tgjGDbrf03K+CbE8j7Dew5NsRui1X4YZe16rrDMR+YakZ+myQY2tFI/tk3CKYQfea+ZTvtRFl4amIZMbZuxQt+4kg2tDrWnWjgdhoikayQVzYnuPIlF4DABTCUP7AzOP7ZFZsFI1IDTPcsBa06lYDWR5q8WVFv697p8TurGXm8bf9vrcX7MkoM+jDEoem/V4mXwtada2BgNoDOui3kSgaEQZ71dxe5AsHuaW2G13cFx9f+ml8fOmt+PjSCUXLbml2vJlPHZcolGq/7e/2s51rQauuNhBw1Uj+1o85CUTJ9RK7sCav5RgI3I/pNA9f3sbdJ3YoGqFqpvhAs/MsnQgnoYpGRDXf3bRzTWjV9QYCakZyv5qhv1C07I0tXudW0Vo+M+iRoPJ5rXDya/TDi9k/BEXLNlzB4/EuFwS3GLHv4U9b14ZWPWEgnJsUjZxVM8WnIUp68vBUNCL04WEGDWSyKekBCwEATYdJzKAF0W0gwrd4b+VV1opWvWQggL859qoZ+rv4+NJzvJyzGxyr+9biTvyPA3fpHt50os0M+pL4Xlj0HWVZE1p1Ok48KOy3R1rRiP3fZe5GfYZ3q29zD9JGOKadYQZtpdZ744a6j51oOjSw9NwFRSOm08oST7TnB2tCq24xEMoMeg4i7GUtf31t86f1CSozlgsJOaJo2Rv4Pc+LAro8PPBLzKCvCI6xXwR3OXy+Iz6+tCR5P8/0iFbxbjEQYOZT31YzRQsiTDrYjKaepzyDy5GVb1ZFI02rbXl44AuWTnaIJr3MoBcgchurFAi9oJXaVXMQM5/KMYNu5yG3naDhW07RshsUjegNhh277Ae7euXIywNnBt0mk+SOGVQ2DiJoekGrwa4yEFAzklfNPP6kC19/37D0XKXR37mbdLPl05GVD97rA3fhxxSKXL69olXXGQiouQxc4r7+biLHgkS0orP84BUtqwb8wLuBrtKqKw2kDo8c+xj39w/cUBQt2ywxt0y2vhFFI7/r9ANvF72iVVcbCKj1JszMp5408/gj9sQMAHBS8iF4odlDn5E8XzYaspUH7ketFj/oBa2srjeQOswoLVp67qXKWN+XzTwesPTlZd3DPL+SXwbTMLDfzOPHeL0KP2jpbahoxHXqm4DoBa3MrlnmdQMzSgvMKB239NxxcLVE2wa+KfTnzXyIeFx1U2qbbLn3pYex50RmHmM1Q2kricx8GiqIHvpZSyeHWrj+MmtEq4vdkheLVsb6Um1ox+8E3a5eGeu7rdmHECWvb+HBt/zAeX2WPzgdwwz6uJlP/bXXe9RZK1r1zBDLJ0R5fR29YZlR+q39dvQwhPBlkgkR/pzoGGbQM63cYwVrQqvIQFZg6aTloCMPD963FRhFIzJJ23xZ6VkrWkUGci2viQ5QNCJM5e/iwfv4wJfT1Ygqep239JxfE+Q1oVVkICuw9NwFXk7BiZtl3OglHrxp5vHNfq3d8x1qUQDTST/uBdaQVpGBrIIZ1HF1BtQElkqxueLBr/ZsvWD/3f7cc0OvaU/2epmcuMygx/y434rr9bxW0SrWKhQtO8h3cUVvmAfNfOpHLq57M98beNvSc0JXcDfEx5eKEvHhM5Wxvq1+3nctaBUZSOP2yKTwX7B0srnTJZnVTHEfT1rgiKWTuyw9J4qPcE2vaxUNsRpg6cvDAtHue7+ikRf9SoLgBTVTTEpmVD8XhHGANaBVZCAN4PljRUH9NhsbxTC0A0XLfgIifEomo7qlL5fiDoRe1yoykCaYefyIZGDWSLsfvJopblE0MuMQV7GSU5aeEy7JtkIvaxUZSBOYUTJl0+bzB/+LoBJEr0TNFO+FCOuSNcctM4+/EXSbelmryEAc4AmXZfcONioaOaNmioHUL4Eoud6eEEOEj8q6gjOD7mVGqS0BZb2qVWQgAsw8/qpEFr46/RDhQ/HxpV94yMnVEIiSUM0U96kZ+r/d1P9jBj3E89C2jV7UKlrmlaAFz9Nl13Jm0JcaZetwQtGyGyDC9hDhfg/3nTLz+IvMKAUVONaUXtMqMhBJeKoaXXKytxoGAJhhBl3O78WT112u54LiOWTtB3s9RPhmiLAmSszmwIyZx3e4/ZH5SS9pFRmIC/iDP9lioE+QdNw46vSKVtEcxAWWnnuD+wvJjrPbScHM41QYjAP0kFaRgbiEO9V92sWKTdDUa45/tRNzDid6QavIQDxgv3kqY31fZgYd7WCWR1BziyA3B11zvBW6XavIQFrAzKcmzTz+OADgaICphhph1Txk8ac7UVbZC92qVWQgLcKMklkZ67vPfjtxn6QgH/5lZlBi5vFHzHzqR2EbUonoRq2iVSyfUbTsIF+Tt7/PBh8uaT9YaunkKN8jCKSkWSfoBq0iAwkQRctuBAB8jpcru0ky66H9kM8DAM5YOqHMoK8HWSU2LIRVq8hA2ghEyX6IcJyn5bxuhZ+QPXl9FwBQaZYVfa0RFq16MrNiWOEZH893uh3dQFi0iibpEREORAYSEeFAZCAREQ5EBhIR4UBkIBERDkQGEhHhQLTM20bCsrbfDQwlkv1DCWetZgrRPkhX42V3WNHImtxJH0nXtNqaltdqa/qqVtMFQufK9PW5crSTHmoC9C86wgz6Si/5Yo2ks4NDCXzvcMJfraYL5Mhcmb4yV+4dX6ynAABOtSQuVsb6PtbGJrlG0bI3Khp5GACwK8Ce2WQGPWzp5ElmlDoZW9ESI+nsjVvTwWtVLdPDMwXy5FzZu1Yf8LdNnknw4PtmfIgZ9PuL89U/tbFNUkCUVAcPVJ6CCB/iQ4MgFz76YwNx3L9pdC9EeGFxvvLLMGrSjKFEUv3mZOWp4UR7tFKui+PEbaN7hxJ44d13Kr989x33WoXCQCDC9rBkh8Mh6xbnKyeYUfp9G5slRM0U71U0cgoAsLnNK4IwNhD/fP+m0S/Z429mlN5p4709sXuieO/WdGe0Uq6Lfz5xW02rubI7rcKyzCtTHGVLG9ohBUTJ/vj40ss8c59MWsuguEnRyFk1U9zXwTY4MpRI9j8ytfTycKLzWm1Nk7O7J9xpFQoDYQY9z/MhNYWvBHUcnhjtFwCAuzrdFk4MInywlmozGapVyaFE8vo9E+HSajiBDz4ytfTcUEJOq5AYyHI4pKg88XaIklJ5VoNC0bK38KyBogL0nSCtZujpTtbgWMlIOnvLnonwarVngp62ezfRgaFYxQK18XwWIkycjrF0ssPScy+1r1VXCThbYH1DrCcyK9rGsTXdmlbVMqVz5atazRRqWo2kr2o1lMA3Dyda0+rYfnzHXDnkmRXB1R+gqBfpyH5Ir+WbDRI+rPKk1XSBHJor05ecfrCNGElnN/D9FE9aHduPvzhXDnFu3jrx8aX/AwAYdDrG0slN7Ux1Yw9Z+JzDzVDBNoyHLT1X8uH+UNHIA7x3lZ7k8ozl32r1/m6whyx8zuFKq+kCeXim0LpWQ4kkHEmTB4YT7rSqlumh5/c31ipUBqJmit+DCH9HcJheGeu7rU1Nso32ZReTzAVm0DE3FV1lgSi5Xs3QH7pM67+rnSUQHplyp1W1TMee3++/VkOJ5Po9E+60qpbpruf3v1+rUEzS6zCD/lgiV5KmZopfaEd71EzxXhcP/IKlk81BGAeoLWRcrqXMXM5QKOVCARE+DFHSsUf2i90T7rSaLpDNQRiHzVy5dPn72/q+Wi3LazWcwIeHEu/XKlQ9CJB/Y18y8/iTQbpbQJRU1Qx9S7KrbuvEWM0Ut/CilDJtO1UZ6/tikO0ZSiTVPRPyWokmxn6ye6K4ZTghr9X3t12rVSh20ldxASK8V3DMh/o3jcaDXNEaPFB5iu/6imj7qtHC7KQ9V5uCCNtDiA8KDv/XfLf97aDa881Jea3aaRw2b56uaTWckNdqrnxVq1ANscDVssIy2cB3BbWDrGjZGyXHrxc6taRq68QMul0mfaeikfGg2jGSlteq3cZRZ6aQ+1W1LKfV1vS1WoWxB7GZhQhnRJ6esYG4BhH+zcLs5Ft+3lzN0Me5M50TC5ZObl+YnfwHP+/thoXZySpE+L3YQHyb4FAVAHCOGSUZlx5X7JmQ02q6QG5/83TntHrz9GR1KIHfU66T02quXNMqdD0IqL0dLzKDyrz1YhDhF9RM8W6/7s1LfO0SHccMOmbpuV/7dV+v8HT+VHQcd8X3lZG0nFbVMh2bKXReq+f3y2nFXfGXCaWBgNp+x2O2JUscWjeSr/lxX4jwvRIxCmeDWq3ygqWTvRLDhxEe4egbQwk5rYJarfLCdEFOKx7hGF4DYUZp0dKJPbaVGbPaRnJEzRSfatVfi0cCOmLp/r+NW8HSc7/l5QQcgQjv8fO+PBLQkelCuLSaKchpNZSoaRVaAwG1B/9rZlDRitYVIMIPqhn6c0XLbvJyP/6GFYV+nvVjh9xveI/r+GaECPvmVcvfsEKt/Ngh95vpglir4URNq1AbCKiNsY8xgz7q4pSbFI2cUTPFpyFKuvXL+ZzoAEsnh1xesy3Y8zYAgC447AZFy/pVdVao1XQhnFrNFOS0Gkln1dAbCKgZyXeZQY+4OMUecu1VM/R3aqb4Q9mxt0TMCWMG7Yg3sQyWToRDB78Cz3j2ESfYXDm8Wk0X5LTqCgMBtYf/DQDACy5PgxDhhxSNvBUfX5pWM8V9AmMRLVfOhKXMciOYQV8THQMRltnQk0GoVSf2PGSZK4u1GkrgzaGKQHPCnrRXxvr+Qs0UTftH7+ESIxBh+z+7p7hc212mF5lBTbuT4sc45mJiBhUuEQLuVTqUwEm+pm7OlWnJbQqaoURS5deAAIDZmUJOWCuD58865/TjhQi7WskaSWfXc11Wxnb8uUirallOq07B82c5ajWcwBu7xkDqmPnUt9VM8QLPIuK1/etrEYrY/sFIn8SDnRzhwUIvrnLbvzRdIDtmCrk3ZO6ze6J4gLtsX1mR25omp47tx38h8Va+IHi7S+Wf4v5VzwIARBtrDeHBTmFHqFXXDLFWYuZTz1j68hi43Wk6Hf2Z7B/V1jSZahDTMmj/3f5cdIPdE8U9wwk8vtI4ONv3TNCfiM63dHJBcIiwDTyuo+jVODiB+X75xXRBrFVXGgiordr8vZnHn+J1t9uFY1rLkTT5KwevUYV/7gjvOZqxfSSdFYWXil4aQq9W3s5WNxW7IV2qUKuuNRBQG3NbvO72iOSue0vUY8ibMZxwngCLPueZNkRDIE97PG4YTuCRVq9RjyHvdrraQOrw3uTTPJjoYgebIpofOH7O46JFbhA9k5u3G+gJAwF8lcvMpyYrY30fs3RyFwBgSsa92Q08+0hTqmU61crnHKfVHzZXpqKd6ZbT/lTLdKbVa/DsI2FHqFXPGMhKLD33SmWs7w5LJx9hBn2I75r68eZd7/ThTIH82P6n2cf8c0e471LDnqZapmSuXDKdzocIi0JsL4naMFMgP+IrPK3gqFUYGEqItepJA6lj6blLZj71ZGWs7zYzjwcsnWDuaHiU/5ArLg3neqcP7SHSsf34jmqZHlzxI1+w/58HCwl7tJlC7lfTheU5lb6iB7xYLdP08/tTPxCdL7HP4Whg/HssHNuPU7wX9oqjVmFgOCHWKnQx6Z0kPr70/5z2VphBD5r51Lfb2yp3xMeX/q9gKffFyljfTtnr8Y1CZeVwda5MrT0T9A9OWtkvhef3h1urR6bEWnXdRmHAnBfsQjuVaOg43I3GcZ9DZrNzJXw1qtGKlKNWPONhaOHeyI5aVcv0XE8PsTwgyux4g6Jl/aiEFAgQYWFkJTOo6DvKItRqJB1erYYSYq3myvRMZCArsHQi9B/iEYehhGc5cYIxg0q5u4iYLoi14hGHoYRnOXGCzZXpG5GBrIAZ9HWJoKP7O51lvhGKlr1VYvfbN2/kubJYq+EEvn8oET6tRtJyWs2VSwuRgayAe8OK3oyqopEH2tQkaRSNiFK22j2k23CBpnBvWKFWI+nwabU1LdZqulDTKjKQVVg6Efp2QYQJRMnQrPOrmeI9AIC2B3tNF8RaDScwGUqER6vdE3Ja1YO9IgNZBf8RifYKFJ5IuuPYhgoRflzi0ILfqVr5j0ioFU8k3XFsQx1OyGlVr4wbGcgqmFGy37SHJQ5N8+TWHUXNLMdsCBNUWzo56Pe958olVi3LacWTW3cUHt8i1Gq6cFWryEAaYOnkSfsf0XEQ4cNqptix4qJqpvg9AMB2iUNfCCrJ3UxBTqvhBD68e6JzWu2ekNdqZZK7sKYe7SiL81UGEV6IDcQ/Lzg0FhuIfwUAMNXuUsxqprgPIvwfJQ5llk52MqP0T0G04913qmwogReU68RaKdfVtHJbirlVdk8U9w0n5LSaLpCdc+WrWkU9SBMsnTwjGWOiKBqZUTPFZBuatQwvNCQ1ZGIGHecpgQJjpiCv1dY0mdk90T6t7J5jOCGnVbVMx3lKoCtEPUgTFuerfwIAnOE1AkUvkg/GBuJpiPB7C7OTvmzENcKekA8eqByPDcTvlzzl3OUTo1/l3yUw3n2nphWvESjUSrkunh5K4PfePB2cVvaE/JuTlePKdfJavfrE6Ff5d7lCZCAO2MMmyezpNuvs43hurTPMKP2jn21RM8V7FI38dwDAzZKnLJh5/Fm/29EMe9gkmT3dZp19HM+tdWau7G8bd08U79madqfVsf34s43aEXnzShAfX3rOTb07vsNcsHTyWKvDG0XL3so3AeXTrwCwyAx6l5lPvdrKvb3wyJQ3raYL5LHVwxu3jKSzt/JNQFdaVcv0ruf3N9YqMhAJIErG1Aw97VJ4wB++bumkwAz6Gt+pF6Jo2Y0Q4bu5b5Xr5AnMoA/xsghtZyiRjO2Z8K7VdIEU5sr0Nb5TL2Qknd04lMB3c98q11pVy/QhXhahIZGBSMLLQf/UfiYtXOYcL/Z5YVVGjX6I8CAPdtrsodb3FTppHHV42iBftOKpea7RaiiBB3mwU0taiYwDRAbiDm4kJ1rMFxUU9rDq4U4bRx1uJKHVqlqmD4uMA0STdHcszlf/yAx6PDYQ/3BsIP6ZTrdnBQvMoDvMfOq5TjekzrvvVP84V6bH/+V18Q8r14VLq2qZ7nh+v5xWUQ/iETVTvAcifFiyvHCQnDPzeEeQVWxbZfdE8Z7hRDi0OrYf71hZxVZEZCAtAFFyUM3QpyVdGPyG1TYByWPMECeD6DRDieTgnonOaVXbBCSPySTOWEk0xGqBxfnqe5ae+wnfULyhlQmjS16wdLLz8on7Xg56E9Av3n2n+t5MoabVcKK9Wk0XyM5Xn7jv5dWbgDJEPYiPKFr2Tl5NtuXUnQ1gfG/lYBiq67bKSDp7J68mG5hW0wVysNXqupGBBADfx9jDawKKkk07YT/oGUsnLzCDvuR3PEcY4PsYe3hNwJa1mi6QF+bK9KV6PEerRAYSMLwm4BaI8Ga+z7GBDy9WT1gv8eCjCjPoOWbQM8ygb4S5opXfjKRrWg0l8Ga+zyHUqlqm5+bK9Mxcmb4RREWr/x8AAP//mC6b1mgHT/IAAAAASUVORK5CYII=;" parent="1" vertex="1">
          <mxGeometry x="360" y="320" width="160" height="160" as="geometry" />
        </mxCell>
        <mxCell id="nX4ZQTxqPqWlE1fyyR4w-2" value="" style="shape=image;verticalLabelPosition=bottom;labelBackgroundColor=default;verticalAlign=top;aspect=fixed;imageAspect=1;image=data:image/svg+xml,PHN2ZyB4bWxucz0iaHR0cDovL3d3dy53My5vcmcvMjAwMC9zdmciIHZpZXdCb3g9IjAgMCAyNCAyNCIgcm9sZT0iaW1nIj48dGl0bGU+QW5zaWJsZTwvdGl0bGU+PHBhdGggZD0iTTEwLjYxNyAxMS40NzNsNC42ODYgMy42OTUtMy4xMDItNy42NjJ6TTEyIDBDNS4zNzEgMCAwIDUuMzcxIDAgMTJzNS4zNzEgMTIgMTIgMTIgMTItNS4zNzEgMTItMTJTMTguNjI5IDAgMTIgMHptNS43OTcgMTcuMzA1Yy0uMDExLjQ3MS0uNDAzLjg0Mi0uODc1LjgzLS4yMzYgMC0uNDE2LS4wOS0uNjY0LS4yOTNsLTYuMTktNS0yLjA3OSA1LjIwM0g2LjE5MUwxMS40MzggNS40NGMuMTI0LS4zMTQuNDI3LS41Mi43NjQtLjUwNi4zMjYtLjAxNC42My4xODkuNzQyLjUwNmw0Ljc3NCAxMS40OTRjLjA0NS4xMTEuMDguMjM0LjA4LjM0OC0uMDAxLjAwOS0uMDAxLjAwOS0uMDAxLjAyM3oiLz48L3N2Zz4=;" parent="1" vertex="1">
          <mxGeometry x="160" y="320" width="160" height="160" as="geometry" />
        </mxCell>
        <mxCell id="nX4ZQTxqPqWlE1fyyR4w-7" value="" style="shape=image;verticalLabelPosition=bottom;labelBackgroundColor=default;verticalAlign=top;aspect=fixed;imageAspect=0;image=data:image/svg+xml,PHN2ZyB4bWxucz0iaHR0cDovL3d3dy53My5vcmcvMjAwMC9zdmciIHZlcnNpb249IjEuMSIgaWQ9InN2ZzIiIGhlaWdodD0iNzUzLjkxNzc5IiB3aWR0aD0iNzc3IiB2aWV3Qm94PSIwIDAgNzc3IDc1My45MTc3OSI+JiN4YTsgIDx0aXRsZSBpZD0idGl0bGUxMjIxIj5LdWJlcm5ldGVzIGxvZ28gd2l0aCBubyBib3JkZXI8L3RpdGxlPiYjeGE7ICA8ZGVmcyBpZD0iZGVmczQiLz4mI3hhOyAgJiN4YTsgIDxtZXRhZGF0YSBpZD0ibWV0YWRhdGE3Ij4mI3hhOyAgICAmI3hhOyAgICAgICYjeGE7ICAgICAgICBpbWFnZS9zdmcreG1sJiN4YTsgICAgICAgICYjeGE7ICAgICAgICBLdWJlcm5ldGVzIGxvZ28gd2l0aCBubyBib3JkZXImI3hhOyAgICAgICAgImt1YmVjdGwiIGlzIHByb25vdW5jZWQgImt5b29iIGt1dHRlbCImI3hhOyAgICAgICYjeGE7ICAgICYjeGE7ICA8L21ldGFkYXRhPiYjeGE7ICA8ZyB0cmFuc2Zvcm09InRyYW5zbGF0ZSgtMjEuNDc1OTYyLC0xNzguNTM1KSIgaWQ9ImxheWVyMSI+JiN4YTsgICAgPGcgdHJhbnNmb3JtPSJtYXRyaXgoMS4wNTU2ODU1LDAsMCwxLjA1NTY4NTUsLTEuMTk1ODk5MiwtOS45NDE4MDcyKSIgaWQ9ImcxMzUwIj4mI3hhOyAgICAgIDxwYXRoIGlkPSJwYXRoMzA1NSIgZD0ibSAzODYuOTMxODgsMTc4LjU5Nzk0IGEgNDguOTI5NjY4LDQ4LjUyOTI0OCAwIDAgMCAtMTguNzUxMjksNC43NDUwOSBMIDExMi4zMDU2NywzMDUuNjAyNzQgQSA0OC45Mjk2NjgsNDguNTI5MjQ4IDAgMCAwIDg1LjgzMTMzMywzMzguNTIzODUgTCAyMi43MDUyNjYsNjEzLjE1MDA2IGEgNDguOTI5NjY4LDQ4LjUyOTI0OCAwIDAgMCA2LjY0MzEyNywzNy4yMDgwNSA0OC45Mjk2NjgsNDguNTI5MjQ4IDAgMCAwIDIuNzgxNjA1LDMuODYxNTMgTCAyMDkuMjM2NDIsODc0LjQyNDU2IGEgNDguOTI5NjY4LDQ4LjUyOTI0OCAwIDAgMCAzOC4yNTUyNSwxOC4yNjA0MiBsIDI4NC4wMTgyMSwtMC4wNjU0IGEgNDguOTI5NjY4LDQ4LjUyOTI0OCAwIDAgMCAzOC4yNTUyNSwtMTguMjI3NjkgTCA3NDYuODA2MSw2NTQuMTU0MTkgYSA0OC45Mjk2NjgsNDguNTI5MjQ4IDAgMCAwIDkuNDU3NDUsLTQxLjA2OTU4IEwgNjkzLjAzOTMxLDMzOC40NTg0IEEgNDguOTI5NjY4LDQ4LjUyOTI0OCAwIDAgMCA2NjYuNTY0OTgsMzA1LjUzNzI5IEwgNDEwLjY1NzM0LDE4My4zNDMwMyBhIDQ4LjkyOTY2OCw0OC41MjkyNDggMCAwIDAgLTIzLjcyNTQ2LC00Ljc0NTA5IHoiIHN0eWxlPSJmaWxsOiMzMjZjZTU7ZmlsbC1vcGFjaXR5OjE7c3Ryb2tlOm5vbmU7c3Ryb2tlLXdpZHRoOjA7c3Ryb2tlLW1pdGVybGltaXQ6NDtzdHJva2UtZGFzaGFycmF5Om5vbmU7c3Ryb2tlLW9wYWNpdHk6MSIvPiYjeGE7ICAgICAgPHBhdGggc3R5bGU9ImNvbG9yOiMwMDAwMDA7Zm9udC1zdHlsZTpub3JtYWw7Zm9udC12YXJpYW50Om5vcm1hbDtmb250LXdlaWdodDpub3JtYWw7Zm9udC1zdHJldGNoOm5vcm1hbDtmb250LXNpemU6bWVkaXVtO2xpbmUtaGVpZ2h0Om5vcm1hbDtmb250LWZhbWlseTpTYW5zOy1pbmtzY2FwZS1mb250LXNwZWNpZmljYXRpb246U2Fuczt0ZXh0LWluZGVudDowO3RleHQtYWxpZ246c3RhcnQ7dGV4dC1kZWNvcmF0aW9uOm5vbmU7dGV4dC1kZWNvcmF0aW9uLWxpbmU6bm9uZTtsZXR0ZXItc3BhY2luZzpub3JtYWw7d29yZC1zcGFjaW5nOm5vcm1hbDt0ZXh0LXRyYW5zZm9ybTpub25lO3dyaXRpbmctbW9kZTpsci10YjtkaXJlY3Rpb246bHRyO2Jhc2VsaW5lLXNoaWZ0OmJhc2VsaW5lO3RleHQtYW5jaG9yOnN0YXJ0O2Rpc3BsYXk6aW5saW5lO292ZXJmbG93OnZpc2libGU7dmlzaWJpbGl0eTp2aXNpYmxlO2ZpbGw6I2ZmZmZmZjtmaWxsLW9wYWNpdHk6MTtzdHJva2U6bm9uZTtzdHJva2Utd2lkdGg6MDtzdHJva2UtbWl0ZXJsaW1pdDo0O3N0cm9rZS1kYXNoYXJyYXk6bm9uZTtzdHJva2Utb3BhY2l0eToxO21hcmtlcjpub25lO2VuYWJsZS1iYWNrZ3JvdW5kOmFjY3VtdWxhdGUiIGQ9Im0gMzg5LjQ2NzI5LDI3Mi4wNTY4NSBjIC04LjQ1ODEzLDguNmUtNCAtMTUuMzE2MTksNy42MTkyOCAtMTUuMzE1MTksMTcuMDE2ODcgMTBlLTYsMC4xNDQyMyAwLjAyOTUsMC4yODIwNSAwLjAzMjcsMC40MjU0MiAtMC4wMTI1LDEuMjc2OTEgLTAuMDc0MSwyLjgxNTIzIC0wLjAzMjcsMy45MjY5NyAwLjIwMTcxLDUuNDIwMjcgMS4zODMyNCw5LjU2ODcxIDIuMDk0MzksMTQuNTYyNTIgMS4yODgzNCwxMC42ODgzNCAyLjM2Nzg4LDE5LjU0ODMyIDEuNzAxNjksMjcuNzgzMzMgLTAuNjQ3ODksMy4xMDUzNCAtMi45MzUxNiw1Ljk0NTM0IC00Ljk3NDE3LDcuOTE5MzkgbCAtMC4zNTk5Nyw2LjQ3OTUgYyAtOS4xOTEwMiwwLjc2MTQ5IC0xOC40NDM1MiwyLjE1NTkgLTI3LjY4NTE1LDQuMjU0MjIgLTM5Ljc2NjcyLDkuMDI5MDggLTc0LjAwNTE3LDI5LjUxMzEgLTEwMC4wNzIzMiw1Ny4xNzAxNiAtMS42OTE0NSwtMS4xNTM5MyAtNC42NTA2MiwtMy4yNzY4MSAtNS41MzA1NCwtMy45MjY5NyAtMi43MzQ0LDAuMzY5MjYgLTUuNDk3OTgsMS4yMTI5NSAtOS4wOTc0OCwtMC44ODM1NyAtNi44NTM3OCwtNC42MTM1NCAtMTMuMDk2MDYsLTEwLjk4MTgzIC0yMC42NDkzMywtMTguNjUzMTEgLTMuNDYwOTUsLTMuNjY5NTYgLTUuOTY3MjQsLTcuMTYzODYgLTEwLjA3OTIzLC0xMC43MDEgLTAuOTMzOCwtMC44MDMyNyAtMi4zNTg4OCwtMS44ODk3MSAtMy40MDMzNywtMi43MTYxNiAtMy4yMTQ3NiwtMi41NjMwNyAtNy4wMDY0NSwtMy44OTk3NiAtMTAuNjY4MjcsLTQuMDI1MTQgLTQuNzA4MDcsLTAuMTYxMjEgLTkuMjQwMzcsMS42Nzk1NCAtMTIuMjA2MzQsNS4zOTk1OCAtNS4yNzI4Myw2LjYxMzQyIC0zLjU4NDY2LDE2LjcyMTYzIDMuNzYzMzUsMjIuNTgwMDkgMC4wNzQ2LDAuMDU5NCAwLjE1Mzk2LDAuMTA1NTQgMC4yMjkwNywwLjE2MzYyIDEuMDA5NzMsMC44MTg1MSAyLjI0NjE5LDEuODY3MjggMy4xNzQzLDIuNTUyNTQgNC4zNjM1MiwzLjIyMTc0IDguMzQ5NDgsNC44NzA5NiAxMi42OTcyMSw3LjQyODUyIDkuMTU5NzksNS42NTY3MyAxNi43NTMzNywxMC4zNDcxNiAyMi43NzY0NCwxNi4wMDI0MSAyLjM1MjAxLDIuNTA3MTUgMi43NjMxLDYuOTI1IDMuMDc2MTIsOC44MzU2OCBsIDQuOTA4NzIsNC4zODUxMiBjIC0yNi4yNzc2NCwzOS41NDU4NCAtMzguNDM5MTUsODguMzkyOTQgLTMxLjI1MjEsMTM4LjE2Mzk1IGwgLTYuNDE0MDUsMS44NjUzMSBjIC0xLjY5MDQ4LDIuMTgyOTkgLTQuMDc5MjUsNS42MTc5MSAtNi41Nzc3Myw2LjY0MzEzIC03Ljg4MDI2LDIuNDgyMDYgLTE2Ljc0OTA1LDMuMzkzNTIgLTI3LjQ1NjA4LDQuNTE2MDEgLTUuMDI2ODQsMC40MTc5OSAtOS4zNjQxOCwwLjE2ODU1IC0xNC42OTM0MiwxLjE3ODA5IC0xLjE3MjkzLDAuMjIyMiAtMi44MDcyMiwwLjY0Nzk4IC00LjA5MDU5LDAuOTQ5MDIgLTAuMDQ0NiwwLjAwOSAtMC4wODYzLDAuMDIyNiAtMC4xMzA5LDAuMDMyNyAtMC4wNywwLjAxNjIgLTAuMTYxODUsMC4wNTAyIC0wLjIyOTA3LDAuMDY1NCAtOS4wMjY5NSwyLjE4MTA5IC0xNC44MjU4OCwxMC40NzgyMSAtMTIuOTU5MDEsMTguNjUzMTIgMS44NjczMSw4LjE3NjgyIDEwLjY4NDY1LDEzLjE0OTM1IDE5Ljc2NTc2LDExLjE5MTg3IDAuMDY1NiwtMC4wMTUgMC4xNjA3NCwtMC4wMTc1IDAuMjI5MDcsLTAuMDMyNyAwLjEwMjUyLC0wLjAyMzUgMC4xOTI3OCwtMC4wNzMyIDAuMjk0NTIsLTAuMDk4MSAxLjI2NTksLTAuMjc3ODggMi44NTIzMiwtMC41ODcwNSAzLjk1OTcsLTAuODgzNTcgNS4yMzk0NiwtMS40MDI4NSA5LjAzNDA3LC0zLjQ2NDA3IDEzLjc0NDQsLTUuMjY4NjggMTAuMTMzNjIsLTMuNjM0NTcgMTguNTI2NjUsLTYuNjcwODUgMjYuNzAzNDEsLTcuODUzOTUgMy40MTUwOCwtMC4yNjc0NyA3LjAxMzE2LDIuMTA3MTIgOC44MDI5NiwzLjEwODg2IGwgNi42NzU4NSwtMS4xNDUzNyBjIDE1LjM2MjUsNDcuNjI5MjYgNDcuNTU3MzYsODYuMTI2MzYgODguMzI0MTMsMTEwLjI4MjQ1IGwgLTIuNzgxNiw2LjY3NTg1IGMgMS4wMDI2LDIuNTkyMjQgMi4xMDg0Myw2LjA5OTU4IDEuMzYxNTgsOC42NTk1NyAtMi45NzI2NSw3LjcwODU5IC04LjA2NDQsMTUuODQ1MDQgLTEzLjg2MjQ0LDI0LjkxNjA0IC0yLjgwNzM3LDQuMTkwNzggLTUuNjgwNTMsNy40NDMwMyAtOC4yMTM5MiwxMi4yMzkwNiAtMC42MDYyMiwxLjE0NzYxIC0xLjM3ODI5LDIuOTEwNDggLTEuOTYzNDgsNC4xMjMzMiAtMy45MzYyMyw4LjQyMTkgLTEuMDQ4OTEsMTguMTIxODcgNi41MTIyMywyMS43NjE5NyA3LjYwODYzLDMuNjYyOTUgMTcuMDUyOTcsLTAuMjAwMzcgMjEuMTQwMTksLTguNjM5MzQgMC4wMDYsLTAuMDExOSAwLjAyNjksLTAuMDIwNyAwLjAzMjcsLTAuMDMyNyAwLjAwNCwtMC4wMDkgLTAuMDA0LC0wLjAyMzYgMCwtMC4wMzI3IDAuNTgyMTcsLTEuMTk2NDcgMS40MDY5NCwtMi43NjkxNiAxLjg5ODA0LC0zLjg5NDI0IDIuMTY5OTIsLTQuOTcxMDUgMi44OTE5NCwtOS4yMzEwNyA0LjQxNzg0LC0xNC4wMzg5MyA0LjA1MjI0LC0xMC4xNzg4NSA2LjI3ODYyLC0yMC44NTkwNSAxMS44NTY5MiwtMjcuNTE0MDQgMS41Mjc1MiwtMS44MjIzNiA0LjAxNzg4LC0yLjUyMzIxIDYuNTk5ODUsLTMuMjE0NTEgbCAzLjQ2ODgyLC02LjI4MzE1IGMgMzUuNTM5ODcsMTMuNjQxNTYgNzUuMzIxMDYsMTcuMzAyMTkgMTE1LjA2MDI3LDguMjc5MzYgOS4wNjU1MSwtMi4wNTgzMyAxNy44MTczOSwtNC43MjIyNiAyNi4yNzc5OCwtNy45MTkzOSAwLjk3NDkyLDEuNzI5MjYgMi43ODY3Miw1LjA1MzQ0IDMuMjcyNDgsNS44OTA0NiAyLjYyMzg0LDAuODUzNjUgNS40ODc3NSwxLjI5NDQ3IDcuODIxMjIsNC43NDUwOSA0LjE3MzQ3LDcuMTMwMzEgNy4wMjc2LDE1LjU2NTYzIDEwLjUwNDY1LDI1Ljc1NDM5IDEuNTI2MTUsNC44MDc3NyAyLjI4MDM4LDkuMDY3OTggNC40NTA1NywxNC4wMzg5MiAwLjQ5NDYzLDEuMTMzMDEgMS4zMTUyNywyLjcyNzc5IDEuODk4MDMsMy45MjY5NyA0LjA3ODYzLDguNDY2MzggMTMuNTUyODksMTIuMzQyOTEgMjEuMTcyOTIsOC42NzIwNiA3LjU2MDIxLC0zLjY0MjAzIDEwLjQ1MDcxLC0xMy4zNDExMiA2LjUxMjIzLC0yMS43NjE5NiAtMC41ODUyNiwtMS4yMTI4IC0xLjM4OTk0LC0yLjk3NTc1IC0xLjk5NjIxLC00LjEyMzMyIC0yLjUzMzY0LC00Ljc5NTg5IC01LjQwNjM0LC04LjAxNTcyIC04LjIxMzkyLC0xMi4yMDYzNCAtNS43OTg1MiwtOS4wNzA3IC0xMC42MDc3MiwtMTYuNjA2MDYgLTEzLjU4MDc3LC0yNC4zMTQ1IC0xLjI0MzEzLC0zLjk3NTc0IDAuMjA5NzMsLTYuNDQ4MzQgMS4xNzgwOSwtOS4wMzIwMyAtMC41Nzk5MSwtMC42NjQ3MyAtMS44MjA4NywtNC40MTkyNSAtMi41NTI1MywtNi4xODQ5OCA0Mi4zNjY2OCwtMjUuMDE1NSA3My42MTYxMiwtNjQuOTQ4MjMgODguMjkxNDEsLTExMS4wNjc4NSAxLjk4MTcsMC4zMTE0NiA1LjQyNjA3LDAuOTIwODYgNi41NDQ5NSwxLjE0NTM3IDIuMzAzMzQsLTEuNTE5MTYgNC40MjExOCwtMy41MDEzMSA4LjU3Mzg5LC0zLjE3NDMgOC4xNzY4MSwxLjE4MjY2IDE2LjU2OTYsNC4yMTk5IDI2LjcwMzQsNy44NTM5NCA0LjcxMDQzLDEuODA0MzggOC41MDQ4OCwzLjg5ODgzIDEzLjc0NDQsNS4zMDE0MSAxLjEwNzQsMC4yOTY0NSAyLjY5Mzc4LDAuNTczMDMgMy45NTk3LDAuODUwODUgMC4xMDE3OSwwLjAyNDkgMC4xOTE5NSwwLjA3NDggMC4yOTQ1MiwwLjA5ODEgMC4wNjg0LDAuMDE1MyAwLjE2MzUyLDAuMDE3NyAwLjIyOTA4LDAuMDMyNyA5LjA4MTYzLDEuOTU1MDYgMTcuOTAwNTQsLTMuMDE0NTYgMTkuNzY1NzUsLTExLjE5MTg3IDEuODY0NzgsLTguMTc1MzkgLTMuOTMxNDcsLTE2LjQ3NDQ0IC0xMi45NTksLTE4LjY1MzExIC0xLjMxMzExLC0wLjI5ODU5IC0zLjE3NTM1LC0wLjgwNTY5IC00LjQ1MDU3LC0xLjA0NzIgLTUuMzI5MjksLTEuMDA5MjYgLTkuNjY2NTUsLTAuNzYwMzYgLTE0LjY5MzQyLC0xLjE3ODA5IC0xMC43MDcwOCwtMS4xMjE5NCAtMTkuNTc1NjksLTIuMDM0MzcgLTI3LjQ1NjA3LC00LjUxNjAxIC0zLjIxMzA2LC0xLjI0NjQ2IC01LjQ5ODg0LC01LjA2OTcxIC02LjYxMDQ2LC02LjY0MzEzIGwgLTYuMTg0OTgsLTEuNzk5ODYgYyAzLjIwNjc4LC0yMy4xOTk5NCAyLjM0MjEsLTQ3LjM0NDk3IC0zLjIwNzAzLC03MS41MDM2MSAtNS42MDA3OSwtMjQuMzgzNTcgLTE1LjQ5ODgzLC00Ni42ODQ3MiAtMjguNjk5NjEsLTY2LjMzMzA5IDEuNTg2NTUsLTEuNDQyMjkgNC41ODI3MSwtNC4wOTU0OCA1LjQzMjMxLC00Ljg3NTk5IDAuMjQ4MzUsLTIuNzQ4MDEgMC4wMzUsLTUuNjI5MjIgMi44Nzk3OCwtOC42NzIwNiA2LjAyMjc2LC01LjY1NTU3IDEzLjYxNjk0LC0xMC4zNDUyIDIyLjc3NjQzLC0xNi4wMDI0MSA0LjM0NzYsLTIuNTU3NzkgOC4zNjY1OSwtNC4yMDY1NSAxMi43Mjk5MywtNy40Mjg1MiAwLjk4NjcyLC0wLjcyODYgMi4zMzQwOSwtMS44ODI0MyAzLjM3MDY1LC0yLjcxNjE2IDcuMzQ2NDYsLTUuODYwNDMgOS4wMzc4OCwtMTUuOTY4MDMgMy43NjMzNSwtMjIuNTgwMDkgLTUuMjc0NTMsLTYuNjEyMDUgLTE1LjQ5NTQzLC03LjIzNDg3IC0yMi44NDE4OCwtMS4zNzQ0NCAtMS4wNDU2OSwwLjgyODE4IC0yLjQ2NDYsMS45MDg1MyAtMy40MDMzOCwyLjcxNjE2IC00LjExMTgsMy41MzczNyAtNi42NTExOSw3LjAzMTI2IC0xMC4xMTE5NSwxMC43MDEgLTcuNTUyODYsNy42NzE2OCAtMTMuNzk1NzgsMTQuMDcxOTMgLTIwLjY0OTMyLDE4LjY4NTg0IC0yLjk2OTg1LDEuNzI4OTcgLTcuMzE5ODQsMS4xMzA3MyAtOS4yOTM4OSwxLjAxNDQ2IGwgLTUuODI1MDEsNC4xNTYwNSBDIDUwMC4yNzMxMSwzNzYuODYzMTggNDU1LjA0OTIsMzU0LjU5NDc1IDQwNi4zNTMzLDM1MC4yNjg5NyBjIC0wLjEzNjIsLTIuMDQwNjkgLTAuMzE0NjMsLTUuNzI5MzcgLTAuMzU5OTcsLTYuODM5NDggLTEuOTkzNTUsLTEuOTA3NjIgLTQuNDAxNzksLTMuNTM2MjIgLTUuMDA2ODksLTcuNjU3NTkgLTAuNjY2MTksLTguMjM1MDEgMC40NDYwNywtMTcuMDk0OTkgMS43MzQ0MSwtMjcuNzgzMzMgMC43MTExNSwtNC45OTM4MSAxLjg5MjY4LC05LjE0MjI1IDIuMDk0MzksLTE0LjU2MjUyIDAuMDQ1OSwtMS4yMzIxNSAtMC4wMjc3LC0zLjAyMDExIC0wLjAzMjcsLTQuMzUyMzkgLTEwZS00LC05LjM5NzU5IC02Ljg1NzA1LC0xNy4wMTc3MiAtMTUuMzE1MTgsLTE3LjAxNjg3IHogbSAtMTkuMTc2NzEsMTE4Ljc5MDg4IC00LjU0ODc0LDgwLjMzOTI5IC0wLjMyNzI1LDAuMTYzNjMgYyAtMC4zMDUwOSw3LjE4NzI1IC02LjIyMDI4LDEyLjkyNjI4IC0xMy40ODI2LDEyLjkyNjI4IC0yLjk3NDg3LDAgLTUuNzIwNzUsLTAuOTU1MzQgLTcuOTUyMTIsLTIuNTg1MjYgbCAtMC4xMzA5LDAuMDY1NCAtNjUuODc0OTQsLTQ2LjY5ODIzIGMgMjAuMjQ2MDUsLTE5LjkwODM0IDQ2LjE0MjM0LC0zNC42MjA1OSA3NS45ODY5LC00MS4zOTY4MyA1LjQ1MTY3LC0xLjIzNzgxIDEwLjkwMDkxLC0yLjE1NjI3IDE2LjMyOTY1LC0yLjgxNDMzIHogbSAzOC4zODYxNSwwIGMgMzQuODQzNzIsNC4yODU0NSA2Ny4wNjc0NSwyMC4wNjI5NyA5MS43NjAyMyw0NC4yNDM4OCBsIC02NS40NDk1Miw0Ni40MDM3MSAtMC4yMjkwOCwtMC4wOTgxIGMgLTUuODA5MjQsNC4yNDI5IC0xMy45OTQwOCwzLjE5MDE2IC0xOC41MjIyMSwtMi40ODcwOCAtMS44NTQ5MSwtMi4zMjU3NyAtMi44MjgxNywtNS4wNjA0NCAtMi45NDUyMywtNy44MjEyMiBsIC0wLjA2NTUsLTAuMDMyNyB6IG0gLTE1NC41OTE3OCw3NC4yMTk3NiA2MC4xNDgxMSw1My43OTk1MSAtMC4wNjU0LDAuMzI3MjUgYyA1LjQyOTA0LDQuNzE5NjcgNi4yMjk2MywxMi45MDk3MyAxLjcwMTY5LDE4LjU4NzY3IC0xLjg1NDc4LDIuMzI1ODYgLTQuMzM3NTUsMy44ODU4NSAtNy4wMDMxLDQuNjE0MTkgbCAtMC4wNjU0LDAuMjYxOCAtNzcuMDk5NTQsMjIuMjUyODMgYyAtMy45MjQxMiwtMzUuODgyMjIgNC41MzI4MywtNzAuNzYyNiAyMi4zODM3NCwtOTkuODQzMjUgeiBtIDI3MC4zMzkyNiwwLjAzMjcgYyA4LjkzNjg1LDE0LjQ4NTM1IDE1LjcwNDI4LDMwLjY2NDAzIDE5LjczMzA0LDQ4LjIwMzU3IDMuOTgwNDQsMTcuMzI5MjMgNC45NzkzOSwzNC42Mjc0OCAzLjMzNzkyLDUxLjM0NTE1IGwgLTc3LjQ5MjI0LC0yMi4zMTgyOCAtMC4wNjU0LC0wLjMyNzI1IGMgLTYuOTM5MjIsLTEuODk2NTEgLTExLjIwMzgzLC04Ljk1NTE5IC05LjU4ODM1LC0xNi4wMzUxNCAwLjY2MTg2LC0yLjkwMDMyIDIuMjAxNDMsLTUuMzUzOTEgNC4yODY5NCwtNy4xNjY3MiBsIC0wLjAzMjcsLTAuMTYzNjIgNTkuODIwODcsLTUzLjUzNzcxIHogTSAzNzcuMTMwMDYsNTIzLjAyMyBoIDI0LjY0MTc0IGwgMTUuMzE1MTksMTkuMTQzOTggLTUuNDk3NzYsMjMuODg5MDggLTIyLjEyMTk0LDEwLjYzNTU1IC0yMi4xODczOSwtMTAuNjY4MjggLTUuNDk3NzYsLTIzLjg4OTA3IHogbSA3OC45OTc1Nyw2NS41MTQ5NyBjIDEuMDQ3MTcsLTAuMDUyOSAyLjA4OTc2LDAuMDQxNSAzLjEwODg2LDAuMjI5MDcgbCAwLjEzMDksLTAuMTYzNjIgNzkuNzUwMjQsMTMuNDgyNiBjIC0xMS42NzE0OCwzMi43OTA4NCAtMzQuMDA1MjgsNjEuMTk4MTEgLTYzLjg0NjAxLDgwLjIwODM5IGwgLTMwLjk1NzYyLC03NC43NzYwOCAwLjA5ODEsLTAuMTMwOSBjIC0yLjg0Mzc3LC02LjYwNzc3IDAuMDAyLC0xNC4zNTY1NCA2LjU0NDk1LC0xNy41MDc3NCAxLjY3NTE0LC0wLjgwNjc3IDMuNDI1MjUsLTEuMjUzNSA1LjE3MDUxLC0xLjM0MTcyIHogbSAtMTMzLjk0MjQ1LDAuMzI3MjUgYyA2LjA4NjAxLDAuMDg1MyAxMS41NDQ5LDQuMzA5NDYgMTIuOTU5MDEsMTAuNTA0NjUgMC42NjIwMiwyLjkwMDI4IDAuMzM5ODEsNS43NzM5NSAtMC43NTI2Nyw4LjMxMjA5IGwgMC4yMjkwNywwLjI5NDUyIC0zMC42MzAzOCw3NC4wMjM0MSBDIDI3NS4zNTI0OCw2NjMuNjIzMTMgMjUyLjU0MjQyLDYzNi4xMDc3IDI0MC4zNDA1NSw2MDIuMzQ3ODcgbCA3OS4wNjMwMywtMTMuNDE3MTUgMC4xMzA5LDAuMTYzNjIgYyAwLjg4NDM2LC0wLjE2Mjc0IDEuNzgxMjcsLTAuMjQxMjcgMi42NTA3LC0wLjIyOTA3IHogbSA2Ni43OTEyNCwzMi40MzAyOSBjIDIuMTE5OTksLTAuMDc3OSA0LjI3MTEzLDAuMzU3MDcgNi4zMTU4OCwxLjM0MTcyIDIuNjgwMywxLjI5MDY5IDQuNzUwODMsMy4zMjI5NCA2LjA1NDA4LDUuNzU5NTUgaCAwLjI5NDUyIGwgMzguOTc1Miw3MC40MjM2OSBjIC01LjA1ODI1LDEuNjk1NjUgLTEwLjI1ODM5LDMuMTQ0OCAtMTUuNTc2OTksNC4zNTI0IC0yOS44MDc4NCw2Ljc2NzkgLTU5LjUyMDk3LDQuNzE3MjUgLTg2LjQyNjEsLTQuNDUwNTcgbCAzOC44NzcwMiwtNzAuMjkyNzkgaCAwLjA2NTQgYyAyLjMzMjgsLTQuMzYwOTQgNi43NTY5OCwtNi45NjI2NSAxMS40MjA5NCwtNy4xMzQgeiIgaWQ9InBhdGgzMDU5Ii8+JiN4YTsgICAgPC9nPiYjeGE7ICA8L2c+JiN4YTs8L3N2Zz4=;" parent="1" vertex="1">
          <mxGeometry x="760" y="324.74" width="160" height="155.26" as="geometry" />
        </mxCell>
        <mxCell id="nX4ZQTxqPqWlE1fyyR4w-17" value="" style="shape=image;verticalLabelPosition=bottom;labelBackgroundColor=default;verticalAlign=top;aspect=fixed;imageAspect=1;image=data:image/svg+xml,PHN2ZyB4bWxucz0iaHR0cDovL3d3dy53My5vcmcvMjAwMC9zdmciIHZlcnNpb249IjEuMSIgaGVpZ2h0PSI3MzUiIHdpZHRoPSI3MzUiIGlkPSJzdmczODgxIiB2aWV3Qm94PSIwIDAgNzM1IDczNSI+JiN4YTsgICYjeGE7ICA8ZGVmcyBpZD0iZGVmczM4MzQiPiYjeGE7ICAgIDxzdHlsZSBpZD0ic3R5bGUzODEyIj4uY2xzLTd7ZmlsbDojZmZmfTwvc3R5bGU+JiN4YTsgICAgPGZpbHRlciBjb2xvci1pbnRlcnBvbGF0aW9uLWZpbHRlcnM9InNSR0IiIGZpbHRlclVuaXRzPSJ1c2VyU3BhY2VPblVzZSIgaGVpZ2h0PSI1NzAuMjE5OTciIHdpZHRoPSI1OTMuOTc5OTgiIHk9IjE4My40NSIgeD0iNTk4LjcxMDAyIiBpZD0ibHVtaW5vc2l0eS1ub2NsaXAiPiYjeGE7ICAgICAgPGZlRmxvb2QgaWQ9ImZlRmxvb2QzODE0IiByZXN1bHQ9ImJnIiBmbG9vZC1jb2xvcj0iI2ZmZiIvPiYjeGE7ICAgICAgPGZlQmxlbmQgbW9kZT0ibm9ybWFsIiBpZD0iZmVCbGVuZDM4MTYiIGluMj0iYmciIGluPSJTb3VyY2VHcmFwaGljIi8+JiN4YTsgICAgPC9maWx0ZXI+JiN4YTsgICAgPG1hc2sgbWFza1VuaXRzPSJ1c2VyU3BhY2VPblVzZSIgaGVpZ2h0PSI1NzAuMjIiIHdpZHRoPSI1OTMuOTgiIHk9IjE4My40NSIgeD0iNTk4LjcxIiBpZD0ibWFzayI+JiN4YTsgICAgICA8ZyBmaWx0ZXI9InVybCgjbHVtaW5vc2l0eS1ub2NsaXApIiBpZD0iZzM4MjMiPiYjeGE7ICAgICAgICA8cGF0aCBpZD0icGF0aDM4MTkiIGQ9Im0gODk1LjcsMTgzLjQ1IGMgLTE1Ny40NiwwIC0yODUuMTEsMTI3LjY1IC0yODUuMTEsMjg1LjExIDAsMTU3LjQ2IDEyNy42NSwyODUuMTEgMjg1LjExLDI4NS4xMSAxNTcuNDYsMCAyODUuMTEsLTEyNy42NyAyODUuMTEsLTI4NS4xMSAwLC0xNTcuNDQgLTEyNy42NSwtMjg1LjExIC0yODUuMTEsLTI4NS4xMSB6IG0gLTAuMDcsNTQ1LjQyIEMgNzUxLjgyLDcyOC44NyA2MzUuNDIsNjEyLjQxIDYzNS4zOSw0NjguNiA2MzUuMzYsMzI0Ljc5IDc1Mi4xLDIwOCA4OTYsMjA4LjI2IGMgMTQzLjksMC4yNiAyNjAuMTQsMTE2Ljc0IDI2MCwyNjAuNSAtMC4xNCwxNDMuNzYgLTExNi41OCwyNjAuMTUgLTI2MC4zNywyNjAuMTEgeiIvPiYjeGE7ICAgICAgICA8cGF0aCBpZD0icGF0aDM4MjEiIGQ9Im0gODc1LjM2LDU5MC45MiBjIC04LjkzLC0xLjQxIC0xMy42NywtMy4xMiAtMjMuNzEsLTcuNjEgQyA4MjQsNTcwLjk0IDgwMi44Nyw1NTEuMTYgNzg5LDUyNC41IGwgLTEuMjIsMC4yNyBhIDkuMjYsOS4yNiAwIDAgMSAtMiwwLjIyIDkuMzcsOS4zNyAwIDAgMSAtNy41MywtMy44MyA5LjI2LDkuMjYgMCAwIDEgLTEuMzcsLTguMzUgbCAyLjI3LC03LjE5IDcuODUsLTI1LjEzIGEgOSw5IDAgMCAxIDE1LjI3LC0zLjM5IGwgMjMuMjYsMjUuMzUgYSA5LjA3LDkuMDcgMCAwIDEgLTEuNDcsMTMuNTUgNjEuMiw2MS4yIDAgMCAwIDE0LjUyLDE0LjU2IDg4LjcxLDg4LjcxIDAgMCAwIDE2LjI2LDUuNjUgMTgxLjMyLDE4MS4zMiAwIDAgMCAyNC43Myw0LjQgViA0NDAuMiBoIC0yMS41MiBhIDE4LjQ5LDE4LjQ5IDAgMCAxIC0xMSwzLjY0IDE4LjIzLDE4LjIzIDAgMCAxIC0xMy41NywtNi4wOCAxOC40OCwxOC40OCAwIDAgMSAtMC4xMSwtMjQuNSAxOC4xOSwxOC4xOSAwIDAgMSAxMy42MywtNi4yNiAxOC41MywxOC41MyAwIDAgMSAxMSwzLjYgaCAyMS41OCB2IC0zLjMzIEMgODY2LjIzLDQwMS41IDg1Ny44LDM5MC45MyA4NTUuMTQsMzc2LjU5IDg1MS4zLDM1NiA4NjQuNCwzMzUuNSA4ODUsMzI5LjkyIGEgNDEuMjMsNDEuMjMgMCAwIDEgMTAuNzQsLTEuNDQgNDEuOCw0MS44IDAgMCAxIDI4LjcyLDExLjY2IDM5Ljk0LDM5Ljk0IDAgMCAxIDEyLjQsMjkgYyAwLDE2LjM1IC03LjY1LDI5IC0yMi4xMiwzNi43NCB2IDQuNjggaCAxOC42MyBhIDE4Ljg4LDE4Ljg4IDAgMCAxIDExLC0zLjYgMTguMDksMTguMDkgMCAwIDEgMTMuNTYsNi4xMyAxOC40OSwxOC40OSAwIDAgMSAtMC4xOCwyNC43OSAxOCwxOCAwIDAgMSAtMTMuMzYsNS44OCAxOC44MSwxOC44MSAwIDAgMSAtMTEsLTMuNTQgaCAtMC42IGMgLTUuMDUsMC4zIC0xMC4yLDAuMzQgLTE1LjE5LDAuMzkgaCAtMi45NCB2IDEwMC45OCBhIDE0NywxNDcgMCAwIDAgMTguMywtMi4zNSA4MS4xMyw4MS4xMyAwIDAgMCAyMCwtNi4zNyA1OS42NSw1OS42NSAwIDAgMCAxNC44NCwtMTMuMzEgOSw5IDAgMCAxIC0wLjgyLC0xMy43OSBsIDI0LjcxLC0yMy42NSBhIDkuMSw5LjEgMCAwIDEgNi4zNCwtMi41NiA5LjE5LDkuMTkgMCAwIDEgOSw3IGMgMi41NiwxMC40OSA1LjEsMjAuODcgNy42NywzMS40MSBhIDEwLjEyLDEwLjEyIDAgMCAxIC05LjgxLDEyLjUzIDEwLjIsMTAuMiAwIDAgMSAtMi41OCwtMC4zMyBjIC0xMi4zNiwyMi41MSAtMzAuNTUsMzkuNzMgLTUyLjc1LDQ5Ljg4IGwgLTQuMDksMS45NSBjIC0xMS4zNSw1LjI0IC0xNy44OSw4LjI1IC0yOS44OSw5LjU3IGwgLTE5LjksMTkuNTIgeiBtIDIwLC0yMzMuMjkgYyAtNi4yNiwwIC0xMS4zOSw1LjE3IC0xMS42OSwxMS43NiBhIDExLjU2LDExLjU2IDAgMCAwIDMsOC40MSAxMS43NywxMS43NyAwIDAgMCA4LjI2LDMuODEgaCAxLjA4IGMgNi4yMywwIDExLjIxLC01IDExLjU2LC0xMS42IDAuMzUsLTYuNiAtNC41NSwtMTEuODYgLTExLjQxLC0xMi4zOSAtMC4xNiwwLjAyIC0wLjQ4LDAuMDEgLTAuNzYsMC4wMSB6Ii8+JiN4YTsgICAgICA8L2c+JiN4YTsgICAgPC9tYXNrPiYjeGE7ICAgIDxmaWx0ZXIgY29sb3ItaW50ZXJwb2xhdGlvbi1maWx0ZXJzPSJzUkdCIiBmaWx0ZXJVbml0cz0idXNlclNwYWNlT25Vc2UiIGhlaWdodD0iMzI3NjYiIHdpZHRoPSI2MjQuMzIwMDEiIHk9Ii04NTkwLjk5MDIiIHg9IjU4My41Mzk5OCIgaWQ9Imx1bWlub3NpdHktbm9jbGlwLTIiPiYjeGE7ICAgICAgPGZlRmxvb2QgaWQ9ImZlRmxvb2QzODI2IiByZXN1bHQ9ImJnIiBmbG9vZC1jb2xvcj0iI2ZmZiIvPiYjeGE7ICAgICAgPGZlQmxlbmQgbW9kZT0ibm9ybWFsIiBpZD0iZmVCbGVuZDM4MjgiIGluMj0iYmciIGluPSJTb3VyY2VHcmFwaGljIi8+JiN4YTsgICAgPC9maWx0ZXI+JiN4YTsgIDwvZGVmcz4mI3hhOyAgPGcgdHJhbnNmb3JtPSJ0cmFuc2xhdGUoMCwxMi45OTk3NikiIGlkPSJnMjI2Ij4mI3hhOyAgICA8ZyB0cmFuc2Zvcm09InRyYW5zbGF0ZSgtNTI4LjIzLC0xMTMuOTcpIiBkYXRhLW5hbWU9IkJhY2tncm91bmQgd2F2eSBvdXRsaW5lIiBpZD0iQmFja2dyb3VuZF93YXZ5X291dGxpbmUiPiYjeGE7ICAgICAgPHBhdGggZmlsbD0iIzMyNmNlNSIgaWQ9InBhdGgzODM4IiBkPSJtIDEyNjMuMjEsNDY4LjU2IGMgMCwzOC42OCAtMjMuNjksNzMuMTQgLTM1LDEwOCAtMTEuNzQsMzYuMTcgLTEzLjI0LDc3Ljg5IC0zNS4xNSwxMDggLTIyLjEzLDMwLjQxIC02MS40OSw0NC42MyAtOTEuOSw2Ni43NiAtMzAuMTEsMjEuOTEgLTU1LjY4LDU1LjA4IC05MS44NCw2Ni44MyAtMzQuOSwxMS4zMyAtNzQuOTMsLTAuMTEgLTExMy42LC0wLjExIC0zOC42NywwIC03OC43LDExLjQ0IC0xMTMuNTksMC4xMSAtMzYuMTcsLTExLjc1IC02MS43NCwtNDQuOTIgLTkxLjg1LC02Ni44MyAtMzAuNDEsLTIyLjEzIC02OS43NywtMzYuMzUgLTkxLjksLTY2Ljc2IC0yMS45MSwtMzAuMSAtMjMuNDEsLTcxLjgyIC0zNS4xNSwtMTA4IC0xMS4zMywtMzQuOSAtMzUsLTY5LjM2IC0zNSwtMTA4IDAsLTM4LjY0IDIzLjY5LC03My4xNCAzNSwtMTA4IDExLjc0LC0zNi4xNyAxMy4yNCwtNzcuODkgMzUuMTUsLTEwOCAyMi4xMywtMzAuNCA2MS40OSwtNDQuNjMgOTEuOSwtNjYuNzUgMzAuMTEsLTIxLjkxIDU1LjY4LC01NS4wOSA5MS44NSwtNjYuODMgMzQuODksLTExLjMzIDc0LjkyLDAuMSAxMTMuNTksMC4xIDM4LjY3LDAgNzguNywtMTEuNDMgMTEzLjU5LC0wLjEgMzYuMTcsMTEuNzQgNjEuNzQsNDQuOTIgOTEuODUsNjYuODMgMzAuNDEsMjIuMTIgNjkuNzcsMzYuMzUgOTEuOSw2Ni43NSAyMS45MSwzMC4xMSAyMy40MSw3MS44MyAzNS4xNSwxMDggMTEuMzEsMzQuODYgMzUsNjkuMzMgMzUsMTA4IHoiLz4mI3hhOyAgICA8L2c+JiN4YTsgICAgPGcgdHJhbnNmb3JtPSJ0cmFuc2xhdGUoLTUyOC4yMywtMTEzLjk3KSIgaWQ9IldhdmVzIj4mI3hhOyAgICAgIDxnIHN0cm9rZS1taXRlcmxpbWl0PSIxMCIgc3Ryb2tlPSIjZmZmZmZmIiBmaWxsPSJub25lIiBpZD0iZzM4NDciIG1hc2s9InVybCgjbWFzaykiPiYjeGE7ICAgICAgICA8cGF0aCBzdHJva2Utd2lkdGg9IjMiIGlkPSJwYXRoMzg0MSIgZD0ibSA1OTguNzEsNDI3LjY4IGMgNDIuNDMsMCA0Mi40MywyMCA4NC44NSwyMCA0Mi40MiwwIDQyLjQzLC0yMCA4NC44NiwtMjAgNDIuNDMsMCA0Mi40MiwyMCA4NC44NSwyMCA0Mi40MywwIDQyLjQyLC0yMCA4NC44NSwtMjAgNDIuNDMsMCA0Mi40MywyMCA4NC44NSwyMCA0Mi40MiwwIDQyLjQzLC0yMCA4NC44NiwtMjAgNDIuNDMsMCA0Mi40MywyMCA4NC44NiwyMCIvPiYjeGE7ICAgICAgICA8cGF0aCBzdHJva2Utd2lkdGg9IjUiIGlkPSJwYXRoMzg0MyIgZD0ibSA1OTguNzEsNDY3LjY4IGMgNDIuNDMsMCA0Mi40MywyMCA4NC44NSwyMCA0Mi40MiwwIDQyLjQzLC0yMCA4NC44NiwtMjAgNDIuNDMsMCA0Mi40MiwyMCA4NC44NSwyMCA0Mi40MywwIDQyLjQyLC0yMCA4NC44NSwtMjAgNDIuNDMsMCA0Mi40MywyMCA4NC44NSwyMCA0Mi40MiwwIDQyLjQzLC0yMCA4NC44NiwtMjAgNDIuNDMsMCA0Mi40MywyMCA4NC44NiwyMCIvPiYjeGE7ICAgICAgICA8cGF0aCBzdHJva2Utd2lkdGg9IjciIGlkPSJwYXRoMzg0NSIgZD0ibSA1OTguNzEsNTE1LjY4IGMgNDIuNDMsMCA0Mi40MywyMCA4NC44NSwyMCA0Mi40MiwwIDQyLjQzLC0yMCA4NC44NiwtMjAgNDIuNDMsMCA0Mi40MiwyMCA4NC44NSwyMCA0Mi40MywwIDQyLjQyLC0yMCA4NC44NSwtMjAgNDIuNDMsMCA0Mi40MywyMCA4NC44NSwyMCA0Mi40MiwwIDQyLjQzLC0yMCA4NC44NiwtMjAgNDIuNDMsMCA0Mi40MywyMCA4NC44NiwyMCIvPiYjeGE7ICAgICAgPC9nPiYjeGE7ICAgIDwvZz4mI3hhOyAgICA8ZyB0cmFuc2Zvcm09InRyYW5zbGF0ZSgtNTI4LjIzLC0xMTMuOTcpIiBpZD0iVGV4dCI+JiN4YTsgICAgICA8ZyBpZD0iZzM4NzgiPiYjeGE7ICAgICAgICA8ZyBkYXRhLW5hbWU9IlRleHQgYW5kIGRldGFpbCIgaWQ9IlRleHRfYW5kX2RldGFpbCI+JiN4YTsgICAgICAgICAgPHBhdGggZmlsbD0iI2ZmZiIgZD0ibSA4OTUuNywxNTYuNCBjIC0xNzIuNCwwIC0zMTIuMTYsMTM5Ljc2IC0zMTIuMTYsMzEyLjE2IDAsMTcyLjQgMTM5Ljc2LDMxMi4xNiAzMTIuMTYsMzEyLjE2IDE3Mi40LDAgMzEyLjE2LC0xMzkuNzIgMzEyLjE2LC0zMTIuMTYgMCwtMTcyLjQ0IC0xMzkuNzYsLTMxMi4xNiAtMzEyLjE2LC0zMTIuMTYgeiBtIC0wLjA4LDU5Ny4xNiBjIC0xNTcuNDQsMCAtMjg0Ljg5LC0xMjcuNTEgLTI4NC45MiwtMjg0Ljk1IDAsLTE1Ny42MSAxMjcuNzgsLTI4NS4zIDI4NS4zMywtMjg1IDE1Ny41NSwwLjMgMjg0LjgxLDEyNy44IDI4NC42NywyODUuMjIgLTAuMTQsMTU3LjQyIC0xMjcuNjQsMjg0Ljc4IC0yODUuMDgsMjg0LjczIHoiIGNsYXNzPSJjbHMtNyIgaWQ9IkNpcmNsZSIvPiYjeGE7ICAgICAgICAgIDxnIGlkPSJMRVRURVJTIj4mI3hhOyAgICAgICAgICAgIDxwYXRoIGZpbGw9IiNmZmYiIGlkPSJwYXRoMzg1MSIgZD0ibSA3NTEuNyw2MTAgYyAtMSwtMy40NSAtNS43NSwtNi44OCAtOS40NCwtNi40MiAtNS4yNCwwLjY3IC0xMC40NiwxLjU0IC0xNi43NiwyLjQ4IDIuMzIsLTYuMTUgNC4yOCwtMTEuNCA2LjI4LC0xNi42NSAxLjczLC00LjU2IC0yLC02Ljc3IC00LjM0LC05LjIxIC0yLjM0LC0yLjQ0IC00LjE3LDAuNjQgLTUuNzYsMS45IC04LjQ3LDYuNzEgLTE2LjY4LDEzLjc1IC0yNS4yMywyMC4zNSAtNC4wNiwzLjEzIC0xLDQuOTUgMC42NCw3LjIgMS42NCwyLjI1IDMuMzEsNC43OCA2LjY2LDEuODMgMy44NiwtMy4zOSA3Ljk0LC02LjU0IDEyLC05LjgzIDAuMTUsMC4zOCAwLjI5LDAuNTYgMC4yNSwwLjY4IC0wLjgsMi4zMiAtMS42Nyw0LjYyIC0yLjQ1LDYuOTUgLTEuNjMsNC45MiAxLjUyLDguNTEgNi42OSw3LjcgMi4xNSwtMC4zNCA0LjM0LC0xIDYuOSwwLjEgLTQuMTYsMy40MSAtNy43Nyw2LjYxIC0xMS42Myw5LjQ2IC0zLjE3LDIuMzQgLTEuNjUsNC4yNSAwLjI2LDYgMS45MSwxLjc1IDIuNzEsNi4zMSA2LjgsMyBxIDEzLjc5LC0xMS4xMiAyNy40OSwtMjIuMzEgYyAwLjk0LC0wLjc3IDIuMTUsLTEuNDkgMS42NCwtMy4yMyB6IiBjbGFzcz0iY2xzLTciLz4mI3hhOyAgICAgICAgICAgIDxwYXRoIGZpbGw9IiNmZmYiIGlkPSJwYXRoMzg1MyIgZD0ibSA5MTguODUsMjczLjYxIGMgNi41NCwyLjcgOS4xMywxLjQ2IDEwLjQ4LC01LjMgMC4zLC0xLjQ3IDAuNTcsLTIuOTMgMC45MywtNC4zOCAwLjI5LC0xLjE4IDAsLTMuMTcgMS44MSwtMi45MiAxLjgxLDAuMjUgNC4xMywtMC4xMiA0Ljc5LDIuNTggMC42NiwyLjcgMS40OCw1LjA5IDIuMjIsNy42MyAyLjA4LDcgMy41MSw4LjA5IDEwLjY0LDguNDYgMi42OCwwLjE0IDMuMjgsLTAuNzcgMi41NywtMy4xNiAtMS4xMiwtMy44MSAtMi4wOSwtNy42NyAtMy4yOCwtMTEuNDYgLTAuNTUsLTEuNzMgLTEsLTIuNzUgMS4zNywtMy43NCA1Ljc4LC0yLjQ0IDcuMzQsLTcuNjggNy43NSwtMTMuMDcgMCwtNi42NiAtNCwtMTEuNTMgLTExLjQ4LC0xMy41MyAtNi4wOCwtMS42MiAtMTIuMzIsLTIuNjMgLTE4LjQ4LC00IC0yLjMsLTAuNSAtMy40NSwwLjQzIC0zLjg4LDIuNjMgLTIuMzYsMTIgLTQuNzYsMjQuMDggLTcuMDksMzYuMTQgLTAuMzEsMS42MyAtMC41NCwzLjIyIDEuNjUsNC4xMiB6IG0gMTcuNTQsLTMxIGMgNS4wNSwtMC41MSA5LjkyLDIuNDEgOS44Nyw1LjQgLTAuMDUsMi45OSAtMS44LDQuNDQgLTUuMTksNC41MyAtMi4wOSwtMS43NiAtNi45NCwxLjEgLTcuNjUsLTMuMzcgLTAuMywtMS44OSAtMSwtNi4xMSAyLjk3LC02LjUyIHoiIGNsYXNzPSJjbHMtNyIvPiYjeGE7ICAgICAgICAgICAgPHBhdGggZmlsbD0iI2ZmZiIgaWQ9InBhdGgzODU1IiBkPSJtIDg1Myw2NjQuODIgYyAtMi44NCwtMC45MyAtNS43NCwtMi4xIC02Ljc0LDIuNjIgLTEuMDksNS4xOSAtMi43NSwxMC4yNSAtNC40NywxNi41IC0yLjYzLC03LjgyIC01LjA3LC0xNC41MiAtNy4xLC0yMS4zNCAtMS4zMywtNC40NiAtNS4xNSwtNC40MiAtOC4zNywtNSAtMy41NSwtMC41OCAtMi45MSwzIC0zLjQ3LDUgLTMsMTAuMzYgLTUuNTgsMjAuODYgLTguOCwzMS4xNiAtMS41OCw1LjA4IDIuMTcsNC42MiA0LjY3LDUuNDkgMi42NiwwLjkxIDUuNDcsMiA2LjQ4LC0yLjQgMS4yMSwtNS4yNyAyLjgyLC0xMC40NSA0LjQ1LC0xNi4zNCAwLjY3LDEuNTQgMS4xMywyLjQyIDEuNDQsMy4zNCAyLDYgNC4wOSwxMS45MyA2LDE3Ljk0IDEuMzcsNC40NCA1LjM3LDQuMTcgOC41Niw0LjYxIDMuMTksMC40NCAyLjUzLC0zIDMuMDYsLTQuODEgMywtMTAuMzggNS41MywtMjAuODkgOC44LC0zMS4xNyAxLjQ5LC00Ljk4IC0xLjk2LC00Ljc2IC00LjUxLC01LjYgeiIgY2xhc3M9ImNscy03Ii8+JiN4YTsgICAgICAgICAgICA8cGF0aCBmaWxsPSIjZmZmIiBpZD0icGF0aDM4NTciIGQ9Im0gMTA5My44Niw2MDEuNTcgYyAtMy4yOCwtMC40NyAtNi41MSwtMS40NCAtOS44LC0xLjc1IC0yLjcxLC0wLjI1IC0zLjM5LC0xLjE5IC0zLjQ4LC00IC0wLjIyLC03IC02LjU1LC0xMi43NCAtMTMuNDQsLTEyLjgyIC00LjczLC0wLjEzIC04LjM1LDIuMjQgLTExLjI1LDUuNTYgLTMuNjEsNC4xMyAtNi43MSw4LjcgLTEwLjMzLDEyLjgyIC0yLjQ2LDIuODEgLTIuMTUsNC41NSAwLjc4LDYuNzYgOC43Niw2LjYyIDE3LjQ1LDEzLjM1IDI1Ljk0LDIwLjMgMywyLjQgNC41MSwyLjE1IDYuNzIsLTAuODYgNCwtNS40NSA0LjE2LC01LjMyIC0xLjIzLC05LjUgLTEuMTgsLTAuOTIgLTIuNDIsLTEuNzggLTMuNSwtMi44MSAtMC44MywtMC43OSAtMi44OSwtMS4xMSAtMS43MywtMi45MSAwLjk0LC0xLjQ1IDEuNzUsLTMuMzUgNC4xNiwtMi44NiAyLjQxLDAuNDkgNSwwLjU2IDcuMzMsMS40MSA1LjM3LDIgOC43MSwtMC4wOSAxMS42MywtNC41NCAxLjkzLC0yLjg5IDIuMDMsLTQuMjYgLTEuOCwtNC44IHogbSAtMzAsNS40MyBjIC0wLjc1LDAuMDYgLTYuMTMsLTQuNTYgLTYuMDgsLTUuMjMgMC4xMywtMS43NiA2LjI4LC03LjY1IDgsLTcuNjUgMi4zMSwwLjQ2IDQsMS42MSA0LjE5LDQuMTUgMC4xMSwxLjU1IC00Ljk3LDguNjMgLTYuMTEsOC43MyB6IiBjbGFzcz0iY2xzLTciLz4mI3hhOyAgICAgICAgICAgIDxwYXRoIGZpbGw9IiNmZmYiIGlkPSJwYXRoMzg1OSIgZD0ibSA4NDUuMjYsMjc0LjYgYyAwLjM1LDIgMSwzLjYgMy40OSwzLjIxIDksLTEuNTYgMTguMDYsLTIuOTEgMjcsLTQuNzcgNC43MiwtMSAxLjQ3LC00LjU2IDEuNTIsLTcgMC4wNSwtMi42MSAtMS4zNywtMy40IC0zLjkzLC0yLjkgLTQuODksMC45NSAtOS44NSwxLjYgLTE0Ljc0LDIuNTcgLTIuNTQsMC41IC0zLjIxLC0wLjY2IC0zLjQ1LC0yLjgzIC0wLjIxLC0xLjkzIC0wLjQ5LC0zLjQzIDIuMywtMy43NCA0LjEzLC0wLjQ0IDguMTcsLTEuNjEgMTIuMywtMi4wNSA0LjQ3LC0wLjQ4IDMuNjUsLTMuMjkgMy4xNywtNi4xMyAtMC40OCwtMi44NCAtMS4wOCwtNS4xNyAtNSwtNC4wOSAtMy42NywxIC03LjU2LDEuMTYgLTExLjI2LDIuMDkgLTIuNiwwLjY2IC0zLjg3LDAuNSAtNC40MSwtMi41NCAtMC41OSwtMy4yOCAxLjIzLC0zLjU1IDMuNTUsLTMuOSA0LjExLC0wLjYxIDguMiwtMS40IDEyLjMxLC0yIDIuNjMsLTAuNCA0LjY1LC0xLjEzIDMuNTksLTQuNDQgLTAuODUsLTIuNjYgMC4zNiwtNi44NiAtNS4xMywtNS43MiAtNy44MSwxLjYzIC0xNS42OCwzIC0yMy41OCw0IC0zLjc4LDAuNDggLTQuMywyLjE3IC0zLjc0LDUuMzEgMi4wMywxMS42NyA0LjAyLDIzLjMzIDYuMDEsMzQuOTMgeiIgY2xhc3M9ImNscy03Ii8+JiN4YTsgICAgICAgICAgICA8cGF0aCBmaWxsPSIjZmZmIiBpZD0icGF0aDM4NjEiIGQ9Im0gOTc4LjY4LDY2OS41NCBhIDg4LjUsODguNSAwIDAgMSAtOC45MiwzLjA3IGMgLTIuNTEsMC44IC00LjMyLDEuODIgLTIuODIsNSAxLjE5LDIuNDYgMC44Nyw2LjU1IDUuNjIsNC42NSAwLjg3LC0wLjM1IDEuOCwtMS4xNyAyLjY1LC0wLjExIDAuODUsMS4wNiAwLjI5LDIuMzIgLTAuMTMsMy4zMiAtMS4yMiwyLjg3IC0zLjc4LDQuMSAtNi42NSw0LjYgLTIuODcsMC41IC01LjI0LC0wLjg3IC02LjY3LC0zLjM3IGEgMzIuNzksMzIuNzkgMCAwIDEgLTQsLTExLjIgYyAtMC45MywtNS44MyA0LjYyLC0xMC45MyA5LjkxLC04LjM4IDQuMzYsMi4xIDcuNjQsMC40MiAxMS4zNCwtMC42NiAyLjUzLC0wLjc0IDIuNTQsLTIuMjUgMS4wOCwtNC4wOSAtMy4zOCwtNC4yNiAtOCwtNS42MSAtMTMuMjQsLTUuODMgYSAyMi42OCwyMi42OCAwIDAgMCAtMTUsNS42IGMgLTUsNC40OCAtNywxMC4xNiAtNSwxNi42NSAyLjUzLDguNDkgNCwxOCAxNC41NiwyMC44IDguMSwyLjEzIDE1LjI0LC0wLjM4IDIxLC02LjEyIDYuMjMsLTYuMjQgNC43MiwtMTMuNTEgMiwtMjAuOTIgLTEuMTksLTMuMTYgLTIuMzUsLTQuNSAtNS43MywtMy4wMSB6IiBjbGFzcz0iY2xzLTciLz4mI3hhOyAgICAgICAgICAgIDxwYXRoIGZpbGw9IiNmZmYiIGlkPSJwYXRoMzg2MyIgZD0ibSAxMDQwLjcsNjUwLjY1IGMgLTMuNjYsMi44NiAtNy42NCw1LjMxIC0xMS4zMSw4LjE3IC0yLDEuNTYgLTMsMS4wNyAtNC4yOSwtMC44MSAtMS4yOSwtMS44OCAtMS42OSwtMyAwLjQ2LC00LjQxIDMuMzMsLTIuMTkgNi41MiwtNC41OSA5Ljc2LC02LjkxIDEuMDYsLTAuNzYgMi4zNCwtMS4zOCAyLjIyLC0zLjIyIGEgMTMuNTQsMTMuNTQgMCAwIDAgLTQuMTksLTUuOCBjIC0xLjg2LC0xLjMxIC0zLjMsMC42OSAtNC43NSwxLjY5IC0zLDIuMDggLTYuMTQsNCAtOC45NCw2LjM0IC0yLjMzLDEuOTQgLTMsMC4xNyAtNC4xNSwtMS4yMSAtMS4zOCwtMS42MSAtMS40LC0yLjYxIDAuNTMsLTMuODcgMy43NSwtMi40NSA3LjIyLC01LjMzIDExLC03LjcxIDMuMSwtMS45NCAyLjQ0LC0zLjgyIDAuNjIsLTYuMDYgLTEuNjEsLTIgLTIuNTksLTUgLTYuMTUsLTIuMyAtNi41Miw0Ljg2IC0xMy4yMiw5LjQ5IC0xOS44OSwxNC4xNyAtMi4xLDEuNDcgLTIuMTksMi45MyAtMC43Miw1IDYuOSw5LjU3IDEzLjcxLDE5LjIgMjAuNTQsMjguODMgMS4yNCwxLjc0IDIuNDUsMi40MyA0LjUsMC45NCBxIDEwLjI2LC03LjUgMjAuNjksLTE0Ljc1IGMgMy4yNywtMi4yNyAxLjI5LC00LjE2IC0wLjExLC02LjIxIC0xLjQsLTIuMDUgLTIuNzMsLTQuMzEgLTUuODIsLTEuODggeiIgY2xhc3M9ImNscy03Ii8+JiN4YTsgICAgICAgICAgICA8cGF0aCBmaWxsPSIjZmZmIiBpZD0icGF0aDM4NjUiIGQ9Im0gNzgyLjQsNjM0LjQyIGMgLTEuNCwtMSAtMi44OCwtMC41MyAtNC4xNCwwLjQ1IHEgLTE1LjE4LDExLjggLTMwLjMzLDIzLjY0IGMgLTEuMzMsMSAtMi4zMiwyLjQ3IC0wLjQsMy41NCAzLjU0LDIgNi43OCw3IDExLjQ5LDEuNzIgYSAxLjU5LDEuNTkgMCAwIDEgMi4xOCwtMC40NyBjIDMuNzYsMi40NiA3LjU1LDQuODcgMTEuMyw3LjMzIDEsMC42OCAwLjY3LDEuNzQgMC41NSwyLjcyIC0wLjUzLDQuMjkgMi40NCw5LjEyIDYuNzEsOS4zNSA0LjQ2LDAuMjMgMi4zNiwtNC40OCAzLjc2LC02LjY5IGEgMywzIDAgMCAwIDAuMzQsLTAuOTQgYyAyLjYsLTEwLjY1IDUuMiwtMjEuMzEgOCwtMzIuODUgLTEuMTIsLTQuMzIgLTYuMDcsLTUuMjIgLTkuNDYsLTcuOCB6IG0gLTYuNCwyNi43MiBjIC03LjgxLC00LjU5IC03LjgxLC00LjU5IC0xLjQ3LC05LjY1IDEuMjgsLTEgMi42LC0yIDQuNDgsLTMuNDQgQSA1Ni4zMyw1Ni4zMyAwIDAgMSA3NzYsNjYxLjE0IFoiIGNsYXNzPSJjbHMtNyIvPiYjeGE7ICAgICAgICAgICAgPHBhdGggZmlsbD0iI2ZmZiIgaWQ9InBhdGgzODY3IiBkPSJtIDc2OS40OSwyOTcuMzUgYyA1LDYuOTQgMTIuNjgsOSAyMC44Miw2IDguNDYsLTMuMDYgMTUsLTExLjMyIDE0LjY2LC0xOC44NyBhIDIwLjU1LDIwLjU1IDAgMCAwIC0xLjI0LC01LjI5IDIuMTEsMi4xMSAwIDAgMCAtMi4xMywtMS43MyBjIC0yLjksMCAtOC4yMyw1LjE5IC04LjI3LDguMyAtMC4wNSw0LjE5IC0yLjczLDYuMjkgLTYuMDgsNy42MyAtMy4xNywxLjI2IC02LDAgLTcuODcsLTIuNjMgYSA3My4xNCw3My4xNCAwIDAgMSAtNS45NCwtOS43NSBjIC0xLjQsLTIuODcgLTEuMTQsLTYgMS40NywtOC4yMyAyLjYxLC0yLjIzIDUuODQsLTMuNzQgOS41NSwtMS43MSAyLjYsMS40MyA5LjYxLC0xIDExLjEsLTMuNTMgMSwtMS42MiAtMC4yOCwtMi41MyAtMS4wOSwtMy40MyBhIDEzLjg4LDEzLjg4IDAgMCAwIC0xMC44LC00LjY4IGMgLTEzLjM4LDAuMDUgLTIzLjgxLDEwLjM1IC0yMi40LDIxLjYxIDAuOCw2LjM0IDQuNzMsMTEuMzQgOC4yMiwxNi4zMSB6IiBjbGFzcz0iY2xzLTciLz4mI3hhOyAgICAgICAgICAgIDxwYXRoIGZpbGw9IiNmZmYiIGlkPSJwYXRoMzg2OSIgZD0ibSA5MTEuNTYsNjc3LjEzIGMgLTMuMzksLTguODIgLTUuNzIsLTEwIC0xNC43OSwtOCBhIDMuODgsMy44OCAwIDAgMCAtMy4yNywyLjYzIFEgODg3LjgsNjkwIDg4Mi4xNCw3MDguMyBjIC0wLjMzLDEuMDcgLTAuODEsMi4zMyAwLjQ3LDMuMTcgMi43MywxLjggOS45LC0wLjcyIDExLjEzLC0zLjg5IDAuNTEsLTEuMzIgMC41MiwtMi45MyAyLjcxLC0yLjg5IDQsMC4wOCA4LDAgMTIsLTAuMTkgMS40MiwtMC4wNiAyLjMsMC40OCAyLjU1LDEuNzYgMC43Nyw0IDMuMTcsNS4xOCA2LjQ4LDQuMzIgNi43NywtMC4xNyA2LjgsLTAuMTkgNC41OCwtNiBxIC01LjI0LC0xMy43NiAtMTAuNSwtMjcuNDUgeiBNIDkwMSw2OTUuMiBjIC0zLDAgLTMuNDQsLTAuODQgLTIuNTQsLTMuMzkgMS4wOSwtMy4xMiAyLC02LjMgMy4yNywtMTAuMzYgMS4zMywzLjQgMi4zMSw1Ljg1IDMuMjQsOC4zMSAyLjA4LDUuNTcgMi4wMyw1LjM4IC0zLjk3LDUuNDQgeiIgY2xhc3M9ImNscy03Ii8+JiN4YTsgICAgICAgICAgICA8cGF0aCBmaWxsPSIjZmZmIiBpZD0icGF0aDM4NzEiIGQ9Im0gOTk5LjQ0LDMwMi42OCBjIDIuMzQsMS4yOCA0LjU3LDQuNjkgNy4yNywwLjE4IDMuNTcsLTYgNy40NCwtMTEuNzkgMTEuMTYsLTE3LjY4IDQuNDgsLTcuMDggNC42LC03LjI5IDExLjgsLTIuNzYgMy44MywyLjQyIDQuODQsLTAuMTkgNi40NSwtMi41MiAxLjcyLC0yLjUgMi40LC00LjQxIC0xLC02LjQxIHEgLTEyLC03LjE1IC0yMy41NSwtMTQuOTIgYyAtMy4yNywtMi4xOCAtNC44OSwtMS42IC03LDEuNjQgLTIuMzQsMy41NyAtMS44Niw1LjQ3IDEuNzYsNy4zOSAyLjEsMS4xMSA0LjQ1LDIuMTMgNS45LDQuMjEgLTAuNzQsMS4xOSAtMS4zNCwyLjE5IC0yLDMuMTcgLTQuNTMsNy4xNiAtOC45MywxNC40IC0xMy42MiwyMS40NSAtMi41MiwzLjg4IDAuMzksNC45MSAyLjgzLDYuMjUgeiIgY2xhc3M9ImNscy03Ii8+JiN4YTsgICAgICAgICAgPC9nPiYjeGE7ICAgICAgICAgIDxnIGRhdGEtbmFtZT0iTmV3IEFuY2hvciIgaWQ9Ik5ld19BbmNob3IiPiYjeGE7ICAgICAgICAgICAgPHBhdGggZmlsbD0iI2ZmZiIgaWQ9InBhdGgzODc0IiBkPSJtIDEwMDguODksNTIwLjQyIGMgLTIuNTcsLTEwLjU0IC01LjExLC0yMC45MiAtNy42OCwtMzEuNDIgYSAzLjIsMy4yIDAgMCAwIC01LjMzLC0xLjU2IGwgLTI0LjcyLDIzLjY2IGEgMy4wNiwzLjA2IDAgMCAwIDEuMjYsNS4xNCBjIDAuOTIsMC4yNiAxLjgyLDAuNTEgMi43NCwwLjcgMiwwLjQzIDEuOCwxLjEgMC44NywyLjUxIGEgNjUuNTksNjUuNTkgMCAwIDEgLTIwLDE5LjU4IGwgLTAuMiwwLjEyIGEgODYuNzgsODYuNzggMCAwIDEgLTIxLjcsNyAxNTkuMzUsMTU5LjM1IDAgMCAxIC0yMy41MywyLjcyIDEuODQsMS44NCAwIDAgMSAtMS45LC0xLjg3IFYgNDM2LjYyIGEgMS4wOCwxLjA4IDAgMCAxIDEuMDgsLTEuMDggYyAxLDAgMi4yMiwwLjIgNS4xNSwwLjE3IDUuNzYsLTAuMDYgMTEuNzYsLTAuMDYgMTcuNTQsLTAuNCAxLjg4LC0wLjExIDIuOTMsLTAuMDUgNC4xMywwLjg1IGEgMTIuMzUsMTIuMzUgMCAwIDAgMTYuNzEsLTEuMjkgMTIuNTIsMTIuNTIgMCAwIDAgMC4xMSwtMTYuNzYgMTIuMywxMi4zIDAgMCAwIC0xNi42NiwtMS41OCA0LjA3LDQuMDcgMCAwIDEgLTIuNTMsMS4wOCBxIC0xMi4wOCwtMC4wNiAtMjQuMTQsMCBhIDEuOSwxLjkgMCAwIDEgLTEuMzksLTAuMzcgdiAtMTIuNjIgYSAxLjgsMS44IDAgMCAxIDAuNDIsLTEuMTggNi40Miw2LjQyIDAgMCAxIDIsLTEuNDEgYyAxMywtNi42IDE5Ljc0LC0xNy40NCAxOS43NSwtMzEuODcgMCwtMjIuODMgLTIyLjI3LC0zOS40NCAtNDQuMjksLTMzLjQ2IC0xNy40Niw0Ljc0IC0yOC44LDIyLjA4IC0yNS41MSwzOS43NyAyLjQyLDEzIDEwLjA3LDIyLjEgMjIuNTEsMjYuOTIgYSA2LjU5LDYuNTkgMCAwIDEgMS4zMywwLjY2IDEuOCwxLjggMCAwIDEgMC43MSwxLjQ3IHYgMTAuMzIgYSAxLjc4LDEuNzggMCAwIDEgLTEuOCwxLjc4IGMgLTguNjUsLTAuMSAtMTcuMzEsLTAuMDYgLTI2LDAgYSA1LjUzLDUuNTMgMCAwIDEgLTMuMzEsLTEuMTIgMTIuMjQsMTIuMjQgMCAwIDAgLTE2LjYyLDEuNyAxMi4zNywxMi4zNyAwIDAgMCAxNi43MywxOC4wNyA1LjA4LDUuMDggMCAwIDEgMy4zLC0xLjA4IGMgOC4zOSwwIDE2Ljc5LDAuMTIgMjUuMTgsMCBhIDMuMTksMy4xOSAwIDAgMSAyLjE3LDAuNDYgMSwxIDAgMCAxIDAuMzEsMC43NiB2IDEwOS44MSBhIDEuODUsMS44NSAwIDAgMSAtMiwxLjg0IDE5Mi40NCwxOTIuNDQgMCAwIDEgLTMwLjIyLC01IDkyLjc5LDkyLjc5IDAgMCAxIC0xNy42OCwtNi4yMSAxLjU2LDEuNTYgMCAwIDEgLTAuMjgsLTAuMTYgNjYuODcsNjYuODcgMCAwIDEgLTE5LjU0LC0yMS4zOCAxLjM4LDEuMzggMCAwIDEgMSwtMi4xNiBsIDIuNjUsLTAuNTQgYSAzLjA4LDMuMDggMCAwIDAgMS42LC01LjA4IGwgLTIzLjI2LC0yNS4zNSBhIDMsMyAwIDAgMCAtNS4xMywxLjE0IGMgLTMuNDQsMTAuODkgLTYuNzksMjEuNTMgLTEwLjE5LDMyLjMyIGEgMy4zNSwzLjM1IDAgMCAwIDMuOTQsNC4yOCBsIDEuOCwtMC40MSBhIDUuMTIsNS4xMiAwIDAgMSA1LjY5LDIuNjQgYyAxMy4zOCwyNiAzMy41LDQ0LjgxIDYwLjEyLDU2LjcgMTAuNCw0LjY1IDE0LjUyLDYgMjMuNSw3LjM3IGEgMS43OCwxLjc4IDAgMCAxIDEsMC41MSBsIDEzLjY3LDEzLjU1IGEgNC45MSw0LjkxIDAgMCAwIDYuODUsMCBsIDEzLjI4LC0xMyBhIDEuODgsMS44OCAwIDAgMSAxLjEyLC0wLjUyIGMgMTMuMywtMS4yNSAxOS4yMywtNC41NCAzMy41NCwtMTEuMDkgMjIuMTUsLTEwLjEzIDM5Ljc0LC0yNy43NiA1MS4wNiwtNDkuMzIgMSwtMS45MiAxLjg4LC0yLjE1IDMuNTgsLTEuNTggMC42NSwwLjIyIDEuMzEsMC40MyAyLDAuNjMgYSA0LjEyLDQuMTIgMCAwIDAgNS4yMSwtNC45OCB6IE0gODk0Ljc5LDM4OC41OSBBIDE3LjcyLDE3LjcyIDAgMCAxIDg3Ny43MSwzNzAuMSBjIDAuNDgsLTEwLjQ2IDkuMTgsLTE4LjE4IDE5LC0xNy40MyAxMC4zNCwwLjggMTcuNDYsOS4xMSAxNi45NCwxOC42OSAtMC41NiwxMC40MiAtOS4xLDE3Ljk2IC0xOC44NiwxNy4yMyB6IiBjbGFzcz0iY2xzLTciLz4mI3hhOyAgICAgICAgICA8L2c+JiN4YTsgICAgICAgIDwvZz4mI3hhOyAgICAgIDwvZz4mI3hhOyAgICA8L2c+JiN4YTsgIDwvZz4mI3hhOzwvc3ZnPg==;" parent="1" vertex="1">
          <mxGeometry x="560" y="320" width="160" height="160" as="geometry" />
        </mxCell>
        <mxCell id="nX4ZQTxqPqWlE1fyyR4w-21" value="" style="shape=image;verticalLabelPosition=bottom;labelBackgroundColor=default;verticalAlign=top;aspect=fixed;imageAspect=1;image=https://www.nginx.com/wp-content/uploads/2020/10/NGINX-Ingress-Contoller-product-icon.svg;" parent="1" vertex="1">
          <mxGeometry x="960" y="320" width="160" height="160" as="geometry" />
        </mxCell>
        <mxCell id="nX4ZQTxqPqWlE1fyyR4w-22" value="" style="shape=image;verticalLabelPosition=bottom;labelBackgroundColor=default;verticalAlign=top;aspect=fixed;imageAspect=0;image=https://raw.githubusercontent.com/kyverno/artwork/5be18d691ae2b42beb898ffc1312024975749bd8/Kyverno.svg;" parent="1" vertex="1">
          <mxGeometry x="960" y="120" width="160" height="160" as="geometry" />
        </mxCell>
        <mxCell id="nX4ZQTxqPqWlE1fyyR4w-23" value="" style="shape=image;verticalLabelPosition=bottom;labelBackgroundColor=default;verticalAlign=top;aspect=fixed;imageAspect=1;image=https://raw.githubusercontent.com/sigstore/community/main/artwork/cosign/horizontal/color/sigstore_cosign-horizontal-color.svg;clipPath=inset(1.06% 69% 0% 0%);" parent="1" vertex="1">
          <mxGeometry x="760" y="120" width="160" height="160" as="geometry" />
        </mxCell>
        <mxCell id="ws-QN18CptcZ7jAUWk0T-3" value="" style="shape=image;verticalLabelPosition=bottom;labelBackgroundColor=default;verticalAlign=top;aspect=fixed;imageAspect=0;image=https://github.com/kubernetes-sigs/kubespray/blob/master/logo/logo-dark.png?raw=true;" vertex="1" parent="1">
          <mxGeometry x="168.21" y="120" width="143.59" height="160" as="geometry" />
        </mxCell>
      </root>
    </mxGraphModel>
  </diagram>
</mxfile>
